<svg width="23" height="23" viewBox="0 0 23 23" fill="none" xmlns="http://www.w3.org/2000/svg">
<path fill-rule="evenodd" clip-rule="evenodd" d="M1.23199 22.2519H11.1348C17.3037 22.2519 22.2604 17.1917 22.2604 11.1263V1.22353L15.622 7.86192H20.1777V7.86266C19.3313 8.844 18.3194 9.59211 15.7472 9.59211H13.8918L10.8233 12.6606H19.0295V12.6613C18.183 13.6427 17.1711 14.3908 14.5989 14.3908H9.09315L6.02915 17.4548H16.1048V17.4555C15.2591 18.4368 14.2465 19.185 11.6743 19.185H4.2997L1.23199 22.2519Z" fill="white"/>
<path fill-rule="evenodd" clip-rule="evenodd" d="M0.00927734 21.0291V14.39L0.010005 12.6606L0.00927734 11.1271C0.00927734 10.9907 0.0114836 10.8551 0.0166996 10.7195V10.7187C0.018935 10.6696 0.0204864 10.6204 0.0234669 10.5712H0.0249222V10.5444C0.0271576 10.5041 0.0293814 10.4632 0.0316168 10.4229H0.0323444V10.411C0.0345798 10.376 0.0368589 10.341 0.0398394 10.3059H0.0405671V10.2992C0.0428025 10.2702 0.0450263 10.2411 0.0472617 10.212H0.0480621V10.2009C0.0502975 10.1763 0.0525213 10.1509 0.0547566 10.1264H0.056212V10.1122C0.0584474 10.0884 0.0606711 10.0645 0.0629065 10.0407H0.063707V10.031C0.0681778 9.98478 0.0733355 9.93858 0.0785514 9.89239H0.0793519V9.88419C0.0815873 9.86333 0.0837935 9.84321 0.0867741 9.82234H0.0875017V9.81713C0.0897371 9.79775 0.0919609 9.77912 0.0941963 9.75975H0.0949967V9.75305C0.0972321 9.73442 0.0994559 9.71579 0.101691 9.69716H0.102419V9.69194C0.104654 9.67257 0.107606 9.65394 0.109841 9.63457V9.63308L0.11508 9.59433C0.118061 9.57123 0.121778 9.54814 0.124758 9.52578H0.125486V9.5228C0.127721 9.5079 0.130018 9.49374 0.132253 9.47884H0.133709V9.4699L0.139676 9.43189H0.141931V9.41848L0.148626 9.37675H0.150081V9.36855L0.156048 9.32981H0.157576V9.32087L0.163543 9.28361H0.164998V9.27243L0.171693 9.23443H0.173221V9.22698C0.185143 9.15918 0.197065 9.09137 0.210478 9.0243H0.211933V9.01462L0.2179 8.98481H0.220156V8.97438L0.226123 8.94532H0.228378V8.93489L0.234345 8.90583H0.236528V8.89614L0.242495 8.86634H0.244023V8.85814L0.250718 8.82759H0.252173V8.82163L0.258868 8.78884H0.259668V8.78512L0.267818 8.74935C0.275269 8.71582 0.282762 8.68154 0.290958 8.64801H0.291686V8.64503L0.29838 8.61672H0.299908V8.6115L0.305875 8.58542H0.307331V8.57797L0.314753 8.54668V8.54518L0.322248 8.51538H0.322975V8.51314L0.32967 8.48408H0.330398V8.4811L0.337165 8.45279H0.337893V8.44906L0.344587 8.42149H0.345315V8.41777L0.35281 8.3902H0.353537V8.38722L0.36096 8.3589H0.36176V8.35667L0.369182 8.32761V8.32686C0.379614 8.28811 0.389295 8.24937 0.400472 8.21062V8.20987C0.405688 8.19199 0.410173 8.17411 0.415389 8.15623H0.416117V8.15474L0.422084 8.13387H0.42434V8.12642L0.431034 8.10257H0.431762V8.09885L0.437001 8.07948H0.439257V8.07203L0.445951 8.04818H0.446679V8.04446L0.452646 8.02434H0.454902V8.01763L0.462324 7.99304H0.463052V7.9908L0.469019 7.96994H0.470547V7.96473L0.477969 7.93864L0.484663 7.91555H0.485391V7.91257C0.490607 7.89617 0.49582 7.87904 0.501036 7.86264L0.509259 7.83731V7.83656L0.515953 7.81421H0.516681V7.81198L0.523448 7.79111H0.524904V7.78739L0.53087 7.76727H0.532399V7.76205L0.538293 7.74342H0.540548V7.73746C0.582276 7.60855 0.626277 7.47964 0.672475 7.35297H0.673202V7.35074L0.680625 7.32987L0.694814 7.29112H0.69627V7.2874L0.703765 7.26803H0.704492V7.26654L0.718682 7.22854H0.720137V7.22481L0.727559 7.20544V7.20394C0.73203 7.19128 0.737261 7.17861 0.742477 7.16594H0.744005V7.16296C0.751456 7.14284 0.75962 7.12347 0.767072 7.10335V7.10261C0.781974 7.06386 0.797631 7.02511 0.813279 6.98637H0.814006V6.98488C0.819222 6.97221 0.823708 6.95954 0.828924 6.94762H0.829651V6.94687L0.835618 6.93197H0.837146V6.9275L0.851263 6.89248H0.852791V6.8895L0.867708 6.85373H0.868436V6.85224L0.874403 6.83809H0.876586V6.83362L0.891503 6.79934H0.892231V6.79711C0.899682 6.77997 0.907192 6.76208 0.914643 6.74494H0.915371V6.74271C0.922822 6.72557 0.930986 6.70769 0.938438 6.69055H0.939238V6.68906C0.959357 6.64286 0.980154 6.59592 1.00102 6.54972V6.54897L1.00778 6.53407H1.00851V6.53183L1.01448 6.51842H1.01593V6.5147C1.02637 6.49234 1.03681 6.46999 1.0465 6.44838V6.44764L1.05319 6.43273H1.05399V6.43124L1.06069 6.41708H1.06214V6.41411L1.06811 6.40144H1.07036V6.39771C1.08825 6.35971 1.10609 6.32171 1.12472 6.28445V6.28371C1.13441 6.26284 1.14485 6.24272 1.15528 6.22186H1.15601V6.22037L1.16278 6.20621H1.16351V6.20472L1.1702 6.19057H1.17093V6.18907L1.17762 6.17492H1.17842V6.17342L1.18512 6.15927H1.18585V6.15778L1.19327 6.14362H1.19407V6.14213L1.20149 6.12797H1.20222V6.12649L1.20971 6.11233H1.21044V6.11158L1.21786 6.09668V6.09593L1.22536 6.08103V6.08028L1.23278 6.06538C1.25588 6.02068 1.27895 5.97671 1.30205 5.93275H1.30285V5.93126L1.31028 5.9171V5.91636C1.32518 5.88804 1.34084 5.85973 1.35648 5.83141H1.35721V5.82992L1.36471 5.81576C1.37439 5.79788 1.38478 5.77925 1.39447 5.76137H1.396V5.75913L1.40342 5.74572V5.74497C1.41087 5.73231 1.41758 5.71964 1.42503 5.70698H1.42729V5.70325L1.43398 5.69133H1.43471V5.68983C1.44439 5.67195 1.45486 5.65482 1.46454 5.63693H1.46527V5.63469L1.47269 5.62128C1.48014 5.60862 1.48765 5.5952 1.4951 5.58253H1.49583V5.58105C1.52117 5.53708 1.54727 5.49312 1.5726 5.4499H1.57333V5.44841L1.59567 5.41116H1.5964V5.40966C1.60385 5.397 1.61128 5.38433 1.61874 5.37241H1.61954V5.37092L1.63292 5.34857H1.63518V5.34484L1.6426 5.33292V5.33217L1.65679 5.30907H1.65825V5.30684L1.68059 5.27032H1.68139V5.26958L1.6955 5.24722H1.69703V5.24425C1.70448 5.23232 1.7119 5.21966 1.7201 5.20774H1.72083V5.20699C1.73871 5.17867 1.75663 5.15036 1.77526 5.12204V5.1213L1.79017 5.0982H1.7909V5.09745L1.80502 5.0751H1.80582V5.07361L1.81994 5.052H1.82146V5.04977L1.83558 5.02816H1.83711V5.02592L1.85123 5.00506H1.85275V5.00208L1.86687 4.98121H1.8684V4.97898L1.88252 4.95811H1.88404V4.95588L1.89816 4.93501H1.89969V4.93278L1.91381 4.91192H1.91533V4.90968L1.93025 4.88807H1.93098V4.88658L1.9459 4.86497H1.94662V4.86423L1.96227 4.84187C1.97195 4.82771 1.98242 4.81282 1.9921 4.79866L2.0167 4.76363H2.01743V4.76289L2.03904 4.73234H2.04129V4.72712L2.05614 4.70626H2.05694V4.70477L2.07855 4.67496H2.08073V4.67198L2.09565 4.65186H2.09638V4.65037L2.10089 4.64367H2.10387V4.6392L2.11799 4.61982H2.11952V4.61759L2.12323 4.61237H2.12694V4.60716L2.13443 4.59673V4.59598L2.1396 4.58853H2.14186V4.58555L2.14484 4.58108H2.14928V4.57512L2.15597 4.56543H2.15677V4.56394L2.16121 4.55723H2.1642V4.55351L2.17839 4.53413H2.17984V4.53264L2.18435 4.52668H2.18734V4.52221L2.20145 4.50284H2.20298V4.5006L2.20742 4.49464H2.21113V4.49017L2.22532 4.47154H2.22678V4.46931L2.23129 4.46409H2.235V4.45962L2.24911 4.44099H2.25064V4.43876L2.27298 4.4097H2.27451V4.4082L2.29758 4.3784H2.29831V4.37766L2.32145 4.34711C2.33113 4.33444 2.34152 4.32103 2.35121 4.30836H2.35201V4.30687L2.37507 4.27706L2.38104 4.26961H2.3825V4.26738L2.40564 4.23832H2.40636V4.23757L2.41233 4.23012H2.41459V4.22788L2.43765 4.19957H2.43838V4.19882L2.44435 4.19137H2.4466V4.18914L2.45112 4.18392H2.45483V4.17945L2.46974 4.16082V4.16008L2.47564 4.15262H2.47789V4.15039L2.48241 4.14517H2.48612V4.1407L2.50846 4.11388H2.50991V4.11239L2.51515 4.10643H2.51813V4.1027L2.52185 4.09823H2.52636V4.09301L2.54127 4.07513H2.542V4.07439L2.54797 4.06768H2.55015V4.06545L2.55466 4.06023H2.55765V4.05576L2.57999 4.02819H2.58071V4.02744L2.58668 4.02074H2.58894V4.01776L2.59338 4.01254H2.59636V4.00807L2.6195 3.98124H2.62023V3.9805L2.62619 3.9738H2.62845V3.97156C2.63888 3.95964 2.64931 3.94697 2.65974 3.93505L2.66643 3.9276H2.66716V3.92611C2.67983 3.9112 2.69328 3.89556 2.70595 3.88065C2.72383 3.85979 2.74167 3.83892 2.7603 3.81806H2.76103V3.81731L2.767 3.80987H2.76852V3.80837L2.77369 3.80242H2.77595V3.79943L2.78046 3.79422H2.78344V3.79049C2.79387 3.77857 2.8043 3.76665 2.81473 3.75473L2.82143 3.74727H2.82215V3.74653L2.82812 3.73982H2.82958V3.73833L2.83482 3.73237H2.83707V3.72939L2.84151 3.72417H2.84449V3.72045L2.8482 3.71672H2.85272V3.71225C2.86315 3.70108 2.87357 3.68915 2.88401 3.67798L2.8907 3.67053H2.89143V3.66978L2.8974 3.66307H2.89892V3.66084L2.90409 3.65488H2.90635V3.6519L2.91086 3.64668H2.91384V3.64296L2.91755 3.63849H2.92126V3.63401L2.92425 3.63029H2.92868V3.62507C2.94135 3.61092 2.95406 3.59676 2.96747 3.58335H2.9682V3.5826L2.97489 3.57515H2.97562V3.57441L2.98159 3.5677H2.98311V3.56621L2.98908 3.56025H2.99134V3.55801L2.9965 3.55279H2.99949V3.54981C3.02259 3.52523 3.04493 3.50063 3.06803 3.47679V11.1278V14.9533V17.9644L0.00927734 21.0291ZM4.80571 1.98876L4.81691 1.98131H4.81837V1.97982L4.83925 1.96566H4.84224V1.96342L4.86232 1.95001H4.86603V1.94778C4.87199 1.94331 4.8787 1.93884 4.88466 1.93437H4.88917V1.93138L4.89659 1.92691H4.89732V1.92617L4.90853 1.91872H4.91297V1.91574L4.91973 1.91127H4.92046V1.91052L4.9428 1.89562H4.94353V1.89487L4.96594 1.87997H4.96739V1.87923C4.97485 1.87401 4.98156 1.86954 4.98901 1.86432H4.99046V1.86283L5.01207 1.84867H5.0136V1.84793C5.02105 1.84271 5.02849 1.83824 5.03594 1.83303H5.03747V1.83228L5.05981 1.81738H5.06054V1.81663L5.0836 1.80173H5.0844V1.80099C5.11272 1.7831 5.14028 1.76447 5.1686 1.74659H5.17005V1.7451L5.19239 1.73094H5.19319V1.7302C5.20511 1.72275 5.21698 1.71455 5.22965 1.7071H5.23263V1.70561C5.24008 1.70114 5.24754 1.69667 5.25424 1.69145H5.25577V1.69071L5.2669 1.684H5.27141V1.68102L5.2923 1.66835H5.29528V1.66686C5.30273 1.66239 5.31017 1.65792 5.31762 1.6527H5.31908V1.65196L5.33028 1.64525H5.33472V1.64227C5.34217 1.6378 5.34888 1.63408 5.35633 1.62961H5.35859V1.62811L5.369 1.62141H5.37423V1.61843L5.39512 1.60576H5.3981V1.60427C5.40555 1.5998 5.41372 1.59459 5.42117 1.59012H5.4219L5.43456 1.58266H5.43754V1.58043C5.44499 1.57596 5.45323 1.57149 5.46068 1.56702H5.46141L5.47407 1.55956H5.47705V1.55807C5.5158 1.53497 5.55457 1.51187 5.59406 1.48952L5.60745 1.48207H5.60971V1.48058C5.62238 1.47313 5.63503 1.46568 5.64769 1.45897H5.64842V1.45823L5.66108 1.45078H5.66407V1.44854L5.67527 1.44258H5.67971V1.4396L5.70285 1.42693L5.71624 1.41948H5.71849V1.41799L5.73043 1.41128H5.73414V1.40904L5.74455 1.40309H5.74978V1.4001C5.75724 1.39563 5.76467 1.39191 5.77212 1.38744H5.77285V1.38669L5.78559 1.37924H5.78777V1.37775L5.7997 1.37105H5.80341V1.36881L5.81389 1.36285H5.81906V1.35987L5.85712 1.33901H5.85857V1.33826L5.87123 1.33081H5.87422V1.32932L5.88615 1.32336H5.88986V1.32112C5.91296 1.30845 5.93604 1.29653 5.95913 1.28461H5.95994V1.28386C6.03519 1.24437 6.11045 1.20562 6.18646 1.16762L6.2021 1.15943L6.21775 1.15198C6.22296 1.14974 6.22818 1.14676 6.23339 1.14452C6.27065 1.12589 6.30791 1.10801 6.34516 1.09013H6.35033V1.08789L6.36154 1.08268H6.36597V1.08044L6.37791 1.07523H6.38169V1.07373L6.39435 1.06778H6.39734V1.06629L6.41073 1.05958H6.41298V1.05884L6.42783 1.05213H6.42863V1.05138L6.44427 1.04393C6.47184 1.03052 6.50015 1.01785 6.52846 1.00518H6.52992V1.00444L6.54556 0.996988C6.55674 0.991772 6.56791 0.986555 6.57984 0.981339H6.58508V0.979106L6.59701 0.973889H6.60072V0.972398L6.61491 0.96644H6.61637V0.965694C6.62754 0.960478 6.63873 0.956006 6.64991 0.95079H6.65515V0.948553L6.66701 0.943336H6.67079V0.941849L6.68491 0.935887H6.68644V0.935141L6.70281 0.927691H6.71023V0.924708L6.72071 0.920237H6.72588V0.918004L6.73854 0.912042H6.74152V0.911296L6.75717 0.904592L6.77507 0.897138H6.78031V0.894905L6.79297 0.889689H6.79595V0.888197L6.8116 0.881494C6.81756 0.879258 6.82354 0.876275 6.8295 0.874039H6.83467V0.871806C6.83914 0.869571 6.84366 0.86808 6.84813 0.86659H6.85031V0.865844C6.86819 0.858393 6.88613 0.850942 6.90401 0.843491H6.90474C6.94274 0.827843 6.98076 0.812196 7.01877 0.797293H7.02175V0.795801C7.03367 0.791331 7.04556 0.786115 7.05748 0.781644H7.06046V0.777919C7.07238 0.773448 7.08432 0.768232 7.09699 0.763761H7.09997V0.763015L7.11707 0.756312H7.12304V0.754074L7.13723 0.748858H7.13869V0.748112L7.15731 0.740662H7.16255V0.738425L7.17747 0.732467H7.18562V0.729484L7.19755 0.725013H7.20134V0.723526L7.21844 0.717563H7.22513V0.715326L7.23932 0.710114H7.24005V0.709368L7.25941 0.701914H7.26312V0.700427L7.28029 0.693719H7.28626V0.691486L7.30037 0.686269H7.3019L7.32199 0.678815H7.32577V0.677328C7.34589 0.669877 7.3667 0.662422 7.38682 0.65497H7.38835V0.654229C7.42486 0.641562 7.46062 0.628148 7.49714 0.615481H7.49786L7.51948 0.608026H7.52093V0.607285L7.54181 0.599831H7.54407V0.599085C7.55078 0.59685 7.55745 0.594617 7.56415 0.592382H7.56794V0.59089C7.57464 0.588654 7.58132 0.586422 7.58802 0.584186H7.59173V0.582695L7.61116 0.575986H7.61487V0.574499L7.63423 0.567791H7.63794V0.566299L7.6573 0.559596H7.66108V0.558104C7.66779 0.555868 7.67373 0.553636 7.68044 0.5514H7.68415V0.549908L7.7043 0.5432H7.70801V0.542459C7.71472 0.540224 7.72212 0.537986 7.72883 0.535751H7.73181V0.535005L7.75342 0.528301H7.75495V0.527555L7.77729 0.520101H7.77802C7.78547 0.517866 7.7937 0.514887 7.80116 0.512652L7.82575 0.505202H7.83245V0.502965L7.85107 0.497002H7.85551V0.495515L7.87116 0.490299V8.04371V10.6047V13.1658L4.80498 16.232V14.9511V6.15629V1.98876H4.80571ZM9.60141 0.107299H9.60439V0.105808C9.61929 0.103572 9.63417 0.10134 9.64907 0.0998498H9.66697V0.0976122C9.68113 0.0953768 9.69524 0.093886 9.70939 0.0923958H9.72955V0.0894169C9.74296 0.0879266 9.75638 0.0856907 9.76979 0.0842004H9.79213V0.0819628C9.80703 0.0804725 9.82118 0.0782411 9.83608 0.0767509H9.85471V0.0745133C9.87036 0.0722779 9.8868 0.0707864 9.90245 0.068551H9.91656V0.0670638C9.93668 0.0648284 9.95604 0.0625917 9.97616 0.0611014H9.97914C10.0313 0.0558855 10.0842 0.0506679 10.1364 0.045452H10.1587V0.043219C10.1818 0.0409836 10.2049 0.039492 10.228 0.0372566H10.2608V0.0350236C10.2832 0.0335333 10.3056 0.0312974 10.3279 0.0298071H10.3696V0.0268237C10.3942 0.0253334 10.4181 0.0230975 10.4427 0.0216072H10.471V0.02012C10.5731 0.014159 10.6759 0.009688 10.7794 0.00596234H10.8927V0.00297889C10.9731 0.00148863 11.0536 0 11.1348 0H12.6683V7.0959V8.36933L9.60141 11.4363V10.6055V3.21376V0.107299ZM14.3986 0H16.169H21.0377L14.3986 6.63913V3.06548V2.26446V0Z" fill="white"/>
</svg>
