<svg width="32" height="32" viewBox="0 0 32 32" fill="none" xmlns="http://www.w3.org/2000/svg">
<path d="M17.9833 23.6784H14.4275C12.1042 23.6784 10.22 21.7234 10.22 19.3151C10.22 18.7343 10.7017 18.2526 11.2825 18.2526C11.8633 18.2526 12.345 18.7343 12.345 19.3151C12.345 20.5476 13.28 21.5534 14.4275 21.5534H17.9833C18.9042 21.5534 19.6692 20.7318 19.6692 19.7401C19.6692 18.5076 19.23 18.2668 18.5075 18.0118L12.7983 16.0001C11.6933 15.6176 10.2058 14.7959 10.2058 12.2601C10.2058 10.0784 11.92 8.32178 14.0167 8.32178H17.5725C19.8958 8.32178 21.78 10.2768 21.78 12.6851C21.78 13.2659 21.2983 13.7476 20.7175 13.7476C20.1367 13.7476 19.655 13.2659 19.655 12.6851C19.655 11.4526 18.72 10.4468 17.5725 10.4468H14.0167C13.0958 10.4468 12.3308 11.2684 12.3308 12.2601C12.3308 13.4926 12.77 13.7334 13.4925 13.9884L19.2017 16.0001C20.3067 16.3826 21.7942 17.2043 21.7942 19.7401C21.78 21.9076 20.08 23.6784 17.9833 23.6784Z" fill="#4E6930"/>
<path d="M16 25.5625C15.4192 25.5625 14.9375 25.0808 14.9375 24.5V7.5C14.9375 6.91917 15.4192 6.4375 16 6.4375C16.5808 6.4375 17.0625 6.91917 17.0625 7.5V24.5C17.0625 25.0808 16.5808 25.5625 16 25.5625Z" fill="#4E6930"/>
<path d="M16 31.2293C7.59918 31.2293 0.770844 24.401 0.770844 16.0002C0.770844 7.59933 7.59918 0.770996 16 0.770996C24.4008 0.770996 31.2292 7.59933 31.2292 16.0002C31.2292 24.401 24.4008 31.2293 16 31.2293ZM16 2.896C8.77501 2.896 2.89584 8.77516 2.89584 16.0002C2.89584 23.2252 8.77501 29.1043 16 29.1043C23.225 29.1043 29.1042 23.2252 29.1042 16.0002C29.1042 8.77516 23.225 2.896 16 2.896Z" fill="#4E6930"/>
</svg>
