<svg width="23" height="23" viewBox="0 0 23 23" fill="none" xmlns="http://www.w3.org/2000/svg">
<g id="Group 4">
<path id="Vector" fill-rule="evenodd" clip-rule="evenodd" d="M1.22275 22.2519H11.1255C17.2945 22.2519 22.2511 17.1917 22.2511 11.1263V1.22351L15.6128 7.8619H20.1685V7.86265C19.322 8.84399 18.3101 9.5921 15.7379 9.5921H13.8825L10.8141 12.6606H19.0202V12.6613C18.1737 13.6426 17.1619 14.3908 14.5897 14.3908H9.0839L6.01991 17.4547H16.0956V17.4555C15.2498 18.4368 14.2372 19.1849 11.665 19.1849H4.29045L1.22275 22.2519Z" fill="#536B2A"/>
<path id="Vector_2" fill-rule="evenodd" clip-rule="evenodd" d="M0 21.0291V14.39L0.000727669 12.6606L0 11.1271C0 10.9907 0.00220629 10.8551 0.00742222 10.7195V10.7187C0.00965762 10.6696 0.011209 10.6204 0.0141895 10.5712H0.0156449V10.5444C0.0178803 10.5041 0.020104 10.4632 0.0223394 10.4229H0.0230671V10.411C0.0253025 10.376 0.0275816 10.341 0.0305621 10.3059H0.0312898V10.2992C0.0335252 10.2702 0.0357489 10.2411 0.0379843 10.212H0.0387847V10.2009C0.0410202 10.1763 0.0432439 10.1509 0.0454793 10.1264H0.0469346V10.1122C0.04917 10.0884 0.0513938 10.0645 0.0536292 10.0407H0.0544296V10.031C0.0589004 9.98478 0.0640581 9.93858 0.0692741 9.89239H0.0700745V9.88419C0.0723099 9.86333 0.0745162 9.84321 0.0774967 9.82234H0.0782244V9.81713C0.0804598 9.79775 0.0826836 9.77912 0.084919 9.75975H0.0857194V9.75305C0.0879548 9.73442 0.0901785 9.71579 0.0924139 9.69716H0.0931416V9.69195C0.095377 9.67257 0.0983284 9.65394 0.100564 9.63457V9.63308L0.105803 9.59433C0.108784 9.57123 0.112501 9.54814 0.115481 9.52578H0.116209V9.5228C0.118444 9.5079 0.120741 9.49374 0.122976 9.47884H0.124431V9.4699L0.130398 9.43189H0.132654V9.41848L0.139349 9.37675H0.140804V9.36856L0.146771 9.32981H0.148299V9.32087L0.154266 9.28361H0.155721V9.27243L0.162416 9.23443H0.163944V9.22698C0.175866 9.15917 0.187788 9.09137 0.2012 9.0243H0.202656V9.01462L0.208623 8.98481H0.210878V8.97438L0.216845 8.94532H0.219101V8.93489L0.225068 8.90583H0.227251V8.89614L0.233218 8.86634H0.234746V8.85814L0.241441 8.82759H0.242896V8.82163L0.24959 8.78884H0.250391V8.78512L0.258541 8.74935C0.265992 8.71582 0.273484 8.68154 0.281681 8.64801H0.282408V8.64503L0.289103 8.61672H0.290631V8.6115L0.296598 8.58542H0.298053V8.57797L0.305475 8.54668V8.54518L0.31297 8.51538H0.313698V8.51314L0.320393 8.48408H0.32112V8.4811L0.327888 8.45279H0.328615V8.44906L0.33531 8.42149H0.336037V8.41777L0.343532 8.39019H0.34426V8.38722L0.351682 8.3589H0.352483V8.35667L0.359905 8.32761V8.32686C0.370337 8.28811 0.380018 8.24937 0.391195 8.21062V8.20987C0.396411 8.19199 0.400896 8.17411 0.406112 8.15623H0.40684V8.15473L0.412807 8.13387H0.415062V8.12642L0.421757 8.10258H0.422485V8.09885L0.427724 8.07948H0.42998V8.07203L0.436674 8.04818H0.437402V8.04446L0.443369 8.02434H0.445624V8.01763L0.453047 7.99304H0.453774V7.9908L0.459741 7.96994H0.461269V7.96473L0.468692 7.93864L0.475386 7.91555H0.476114V7.91257C0.48133 7.89617 0.486543 7.87904 0.491759 7.86264L0.499981 7.83731V7.83656L0.506676 7.81421H0.507403V7.81198L0.514171 7.79111H0.515626V7.78738L0.521593 7.76726H0.523121V7.76205L0.529015 7.74342H0.531271V7.73746C0.572999 7.60855 0.616999 7.47964 0.663197 7.35297H0.663925V7.35074L0.671347 7.32987L0.685537 7.29112H0.686992V7.2874L0.694487 7.26802H0.695215V7.26654L0.709404 7.22854H0.71086V7.22481L0.718282 7.20544V7.20394C0.722753 7.19128 0.727983 7.17861 0.733199 7.16594H0.734727V7.16296C0.742179 7.14284 0.750343 7.12347 0.757794 7.10335V7.10261C0.772697 7.06386 0.788354 7.02511 0.804001 6.98637H0.804729V6.98488C0.809945 6.97221 0.81443 6.95954 0.819646 6.94762H0.820374V6.94687L0.826341 6.93197H0.827869V6.9275L0.841986 6.89248H0.843514V6.8895L0.858431 6.85373H0.859159V6.85224L0.865126 6.83809H0.867309V6.83362L0.882226 6.79934H0.882953V6.7971C0.890405 6.77997 0.897914 6.76208 0.905366 6.74494H0.906093V6.74271C0.913545 6.72557 0.921709 6.70768 0.92916 6.69055H0.929961V6.68906C0.950079 6.64286 0.970876 6.59592 0.99174 6.54972V6.54897L0.998507 6.53407H0.999235V6.53183L1.0052 6.51842H1.00666V6.5147C1.01709 6.49234 1.02753 6.46999 1.03722 6.44838V6.44764L1.04391 6.43273H1.04471V6.43124L1.05141 6.41708H1.05286V6.41411L1.05883 6.40143H1.06109V6.39771C1.07897 6.35971 1.09682 6.32171 1.11544 6.28445V6.28371C1.12513 6.26284 1.13557 6.24272 1.14601 6.22186H1.14673V6.22037L1.1535 6.20621H1.15423V6.20472L1.16092 6.19057H1.16165V6.18907L1.16835 6.17492H1.16915V6.17342L1.17584 6.15927H1.17657V6.15778L1.18399 6.14362H1.18479V6.14213L1.19221 6.12797H1.19294V6.12649L1.20044 6.11233H1.20116V6.11158L1.20859 6.09668V6.09593L1.21608 6.08103V6.08028L1.2235 6.06538C1.2466 6.02068 1.26968 5.97671 1.29278 5.93275H1.29358V5.93126L1.301 5.9171V5.91636C1.3159 5.88804 1.33156 5.85973 1.34721 5.83141H1.34793V5.82992L1.35543 5.81576C1.36512 5.79788 1.3755 5.77925 1.38519 5.76137H1.38672V5.75913L1.39414 5.74572V5.74497C1.40159 5.73231 1.4083 5.71964 1.41575 5.70697H1.41801V5.70325L1.4247 5.69133H1.42543V5.68983C1.43512 5.67195 1.44558 5.65482 1.45527 5.63693H1.45599V5.6347L1.46341 5.62128C1.47087 5.60862 1.47838 5.5952 1.48583 5.58253H1.48655V5.58105C1.51189 5.53708 1.53799 5.49312 1.56332 5.4499H1.56405V5.44841L1.58639 5.41116H1.58712V5.40966C1.59457 5.397 1.60201 5.38433 1.60946 5.37241H1.61026V5.37092L1.62365 5.34857H1.6259V5.34484L1.63333 5.33292V5.33217L1.64752 5.30907H1.64897V5.30684L1.67131 5.27032H1.67211V5.26958L1.68623 5.24722H1.68776V5.24425C1.69521 5.23232 1.70263 5.21966 1.71082 5.20774H1.71155V5.20699C1.72943 5.17867 1.74735 5.15036 1.76598 5.12204V5.1213L1.7809 5.0982H1.78162V5.09745L1.79574 5.0751H1.79654V5.07361L1.81066 5.052H1.81219V5.04977L1.8263 5.02816H1.82783V5.02592L1.84195 5.00506H1.84348V5.00208L1.85759 4.98121H1.85912V4.97898L1.87324 4.95811H1.87477V4.95588L1.88888 4.93501H1.89041V4.93278L1.90453 4.91191H1.90606V4.90968L1.92097 4.88807H1.9217V4.88658L1.93662 4.86497H1.93735V4.86423L1.95299 4.84187C1.96268 4.82771 1.97314 4.81282 1.98282 4.79866L2.00742 4.76363H2.00815V4.76289L2.02976 4.73234H2.03202V4.72712L2.04686 4.70626H2.04766V4.70477L2.06927 4.67496H2.07146V4.67198L2.08637 4.65186H2.0871V4.65037L2.09161 4.64367H2.09459V4.6392L2.10871 4.61982H2.11024V4.61759L2.11395 4.61237H2.11766V4.60716L2.12516 4.59673V4.59598L2.13032 4.58853H2.13258V4.58555L2.13556 4.58108H2.14V4.57512L2.1467 4.56543H2.1475V4.56394L2.15194 4.55723H2.15492V4.55351L2.16911 4.53413H2.17056V4.53264L2.17508 4.52668H2.17806V4.52221L2.19218 4.50284H2.1937V4.5006L2.19814 4.49464H2.20185V4.49017L2.21604 4.47154H2.2175V4.46931L2.22201 4.46409H2.22572V4.45962L2.23984 4.44099H2.24137V4.43876L2.26371 4.4097H2.26523V4.4082L2.2883 4.3784H2.28903V4.37766L2.31217 4.34711C2.32185 4.33444 2.33224 4.32103 2.34193 4.30836H2.34273V4.30687L2.3658 4.27706L2.37176 4.26961H2.37322V4.26738L2.39636 4.23832H2.39709V4.23757L2.40305 4.23012H2.40531V4.22788L2.42838 4.19957H2.4291V4.19882L2.43507 4.19137H2.43733V4.18914L2.44184 4.18392H2.44555V4.17945L2.46047 4.16082V4.16008L2.46636 4.15262H2.46862V4.15039L2.47313 4.14517H2.47684V4.1407L2.49918 4.11388H2.50063V4.11239L2.50587 4.10643H2.50886V4.1027L2.51257 4.09823H2.51708V4.09301L2.532 4.07513H2.53272V4.07439L2.53869 4.06768H2.54087V4.06544L2.54539 4.06023H2.54837V4.05576L2.57071 4.02819H2.57144V4.02744L2.5774 4.02074H2.57966V4.01776L2.5841 4.01254H2.58708V4.00807L2.61022 3.98124H2.61095V3.9805L2.61692 3.9738H2.61917V3.97156C2.6296 3.95964 2.64003 3.94697 2.65046 3.93505L2.65716 3.9276H2.65788V3.92611C2.67055 3.9112 2.684 3.89556 2.69667 3.88065C2.71455 3.85979 2.7324 3.83892 2.75102 3.81806H2.75175V3.81731L2.75772 3.80986H2.75925V3.80837L2.76441 3.80242H2.76667V3.79943L2.77118 3.79422H2.77416V3.79049C2.7846 3.77857 2.79502 3.76665 2.80545 3.75473L2.81215 3.74727H2.81288V3.74653L2.81884 3.73982H2.8203V3.73833L2.82554 3.73237H2.82779V3.72939L2.83223 3.72417H2.83522V3.72045L2.83893 3.71672H2.84344V3.71225C2.85387 3.70108 2.8643 3.68915 2.87473 3.67798L2.88142 3.67053H2.88215V3.66978L2.88812 3.66307H2.88965V3.66084L2.89481 3.65488H2.89707V3.6519L2.90158 3.64668H2.90456V3.64296L2.90827 3.63849H2.91199V3.63401L2.91497 3.63029H2.91941V3.62507C2.93207 3.61092 2.94478 3.59676 2.95819 3.58335H2.95892V3.5826L2.96561 3.57515H2.96634V3.5744L2.97231 3.5677H2.97384V3.56621L2.9798 3.56025H2.98206V3.55801L2.98723 3.55279H2.99021V3.54981C3.01331 3.52522 3.03566 3.50063 3.05876 3.47679V11.1278V14.9533V17.9644L0 21.0291ZM4.79643 1.98876L4.80764 1.98131H4.80909V1.97982L4.82998 1.96566H4.83296V1.96342L4.85304 1.95001H4.85675V1.94778C4.86271 1.94331 4.86942 1.93884 4.87538 1.93437H4.87989V1.93138L4.88732 1.92691H4.88804V1.92617L4.89925 1.91872H4.90369V1.91574L4.91046 1.91127H4.91118V1.91052L4.93352 1.89562H4.93425V1.89487L4.95666 1.87997H4.95812V1.87923C4.96557 1.87401 4.97228 1.86954 4.97973 1.86432H4.98118V1.86283L5.0028 1.84867H5.00432V1.84793C5.01178 1.84271 5.01921 1.83824 5.02666 1.83303H5.02819V1.83228L5.05053 1.81738H5.05126V1.81663L5.07433 1.80173H5.07513V1.80098C5.10344 1.7831 5.131 1.76447 5.15932 1.74659H5.16077V1.7451L5.18311 1.73094H5.18391V1.7302C5.19584 1.72275 5.2077 1.71455 5.22037 1.7071H5.22335V1.70561C5.2308 1.70114 5.23826 1.69667 5.24496 1.69145H5.24649V1.69071L5.25763 1.684H5.26214V1.68102L5.28302 1.66835H5.28601V1.66686C5.29346 1.66239 5.30089 1.65792 5.30834 1.6527H5.3098V1.65196L5.32101 1.64525H5.32544V1.64227C5.3329 1.6378 5.33961 1.63408 5.34706 1.62961H5.34931V1.62811L5.35972 1.62141H5.36496V1.61843L5.38584 1.60576H5.38882V1.60427C5.39628 1.5998 5.40444 1.59459 5.41189 1.59012H5.41262L5.42528 1.58266H5.42826V1.58043C5.43572 1.57596 5.44395 1.57149 5.4514 1.56702H5.45213L5.46479 1.55956H5.46778V1.55807C5.50652 1.53497 5.54529 1.51187 5.58479 1.48952L5.59818 1.48207H5.60043V1.48058C5.6131 1.47313 5.62575 1.46568 5.63842 1.45897H5.63914V1.45823L5.6518 1.45078H5.65479V1.44854L5.66599 1.44258H5.67043V1.4396L5.69357 1.42693L5.70696 1.41948H5.70922V1.41799L5.72115 1.41128H5.72486V1.40904L5.73527 1.40309H5.74051V1.4001C5.74796 1.39563 5.75539 1.39191 5.76285 1.38744H5.76357V1.38669L5.77631 1.37924H5.77849V1.37775L5.79043 1.37105H5.79414V1.36881L5.80461 1.36285H5.80978V1.35987L5.84784 1.33901H5.84929V1.33826L5.86196 1.33081H5.86494V1.32932L5.87687 1.32336H5.88058V1.32112C5.90368 1.30845 5.92676 1.29653 5.94986 1.28461H5.95066V1.28386C6.02592 1.24437 6.10118 1.20562 6.17718 1.16762L6.19283 1.15943L6.20847 1.15198C6.21369 1.14974 6.2189 1.14676 6.22412 1.14452C6.26137 1.12589 6.29863 1.10801 6.33589 1.09013H6.34105V1.08789L6.35226 1.08268H6.3567V1.08044L6.36863 1.07523H6.37241V1.07373L6.38508 1.06778H6.38806V1.06629L6.40145 1.05958H6.4037V1.05884L6.41855 1.05213H6.41935V1.05138L6.43499 1.04393C6.46256 1.03052 6.49087 1.01785 6.51919 1.00518H6.52064V1.00444L6.53629 0.996988C6.54746 0.991772 6.55864 0.986555 6.57056 0.981339H6.5758V0.979106L6.58773 0.973889H6.59144V0.972398L6.60563 0.96644H6.60709V0.965694C6.61827 0.960478 6.62946 0.956006 6.64063 0.95079H6.64587V0.948553L6.65773 0.943336H6.66152V0.941849L6.67563 0.935887H6.67716V0.935141L6.69353 0.927691H6.70096V0.924708L6.71144 0.920237H6.7166V0.918004L6.72926 0.912042H6.73225V0.911296L6.74789 0.904592L6.76579 0.897138H6.77103V0.894905L6.78369 0.889689H6.78668V0.888197L6.80232 0.881494C6.80828 0.879258 6.81426 0.876275 6.82022 0.874039H6.82539V0.871806C6.82986 0.869571 6.83438 0.86808 6.83885 0.86659H6.84103V0.865844C6.85892 0.858393 6.87685 0.850942 6.89474 0.843491H6.89546C6.93347 0.827843 6.97149 0.812196 7.00949 0.797293H7.01247V0.795801C7.02439 0.791331 7.03628 0.786115 7.0482 0.781644H7.05118V0.777919C7.06311 0.773448 7.07505 0.768232 7.08771 0.763761H7.0907V0.763015L7.1078 0.756312H7.11376V0.754074L7.12795 0.748858H7.12941V0.748112L7.14804 0.740662H7.15328V0.738425L7.16819 0.732467H7.17634V0.729483L7.18828 0.725013H7.19206V0.723526L7.20916 0.717563H7.21586V0.715326L7.23005 0.710114H7.23077V0.709368L7.25013 0.701914H7.25384V0.700427L7.27101 0.693719H7.27698V0.691486L7.2911 0.686269H7.29262L7.31271 0.678815H7.31649V0.677328C7.33661 0.669877 7.35743 0.662422 7.37754 0.65497H7.37907V0.654229C7.41558 0.641562 7.45135 0.628148 7.48786 0.615481H7.48859L7.5102 0.608027H7.51165V0.607285L7.53254 0.599831H7.53479V0.599085C7.5415 0.59685 7.54817 0.594617 7.55488 0.592382H7.55866V0.59089C7.56537 0.588654 7.57204 0.586422 7.57874 0.584186H7.58246V0.582695L7.60188 0.575986H7.6056V0.574499L7.62495 0.567791H7.62866V0.566299L7.64802 0.559596H7.6518V0.558104C7.65851 0.555868 7.66445 0.553636 7.67116 0.5514H7.67487V0.549908L7.69503 0.5432H7.69874V0.542459C7.70544 0.540224 7.71284 0.537986 7.71955 0.535751H7.72253V0.535005L7.74414 0.528301H7.74567V0.527555L7.76801 0.520101H7.76874C7.77619 0.517866 7.78443 0.514887 7.79188 0.512652L7.81647 0.505202H7.82317V0.502965L7.8418 0.497002H7.84624V0.495515L7.86188 0.490299V8.04371V10.6047V13.1658L4.7957 16.232V14.9511V6.15629V1.98876H4.79643ZM9.59213 0.107299H9.59511V0.105808C9.61002 0.103572 9.62489 0.10134 9.63979 0.0998498H9.65769V0.0976122C9.67185 0.0953768 9.68596 0.093886 9.70012 0.0923958H9.72027V0.0894169C9.73369 0.0879266 9.7471 0.0856907 9.76051 0.0842004H9.78285V0.0819628C9.79776 0.0804725 9.8119 0.0782411 9.8268 0.0767509H9.84543V0.0745133C9.86108 0.0722779 9.87752 0.0707864 9.89317 0.068551H9.90728V0.0670638C9.9274 0.0648284 9.94676 0.0625917 9.96688 0.0611014H9.96986C10.022 0.0558855 10.075 0.0506679 10.1271 0.045452H10.1495V0.043219C10.1726 0.0409836 10.1956 0.039492 10.2187 0.0372566H10.2515V0.0350236C10.2739 0.0335333 10.2963 0.0312974 10.3186 0.0298071H10.3603V0.0268237C10.3849 0.0253334 10.4088 0.0230975 10.4334 0.0216072H10.4617V0.02012C10.5638 0.014159 10.6666 0.009688 10.7702 0.00596234H10.8834V0.00297889C10.9639 0.00148863 11.0443 0 11.1255 0H12.659V7.0959V8.36933L9.59213 11.4363V10.6055V3.21376V0.107299ZM14.3893 0H16.1597H21.0284L14.3893 6.63913V3.06548V2.26446V0Z" fill="#DA9406"/>
</g>
</svg>
