<svg width="302" height="266" viewBox="0 0 302 266" fill="none" xmlns="http://www.w3.org/2000/svg">
<path d="M302 -18.9268H-0.467285V296.348H302V-18.9268Z" fill="#DA9406"/>
<path fill-rule="evenodd" clip-rule="evenodd" d="M131.47 131.435C132.1 132.847 133.057 134.07 134.242 134.994C135.604 136.056 137.259 136.726 139.048 136.842L139.141 136.847H139.146L139.232 136.852L139.302 136.854L139.343 136.857L139.398 136.859H139.459H139.489H139.512H139.605H139.698H139.721H139.75H139.812L139.866 136.857L139.907 136.854L139.978 136.852L140.064 136.847H140.069L140.162 136.842C141.953 136.726 143.606 136.056 144.968 134.994C146.057 134.146 146.953 133.044 147.58 131.776L159.475 133.143C158.436 137.131 156.322 140.658 153.473 143.366C150.486 146.205 146.693 148.141 142.494 148.755L142.451 148.762C142.383 148.771 142.313 148.781 142.242 148.79L142.194 148.798L141.992 148.824L141.928 148.831L141.751 148.85L141.669 148.859L141.485 148.878L141.419 148.885L141.246 148.899L141.151 148.907L140.985 148.918L140.898 148.926L140.744 148.935L140.632 148.942L140.469 148.949L140.385 148.954L140.216 148.959L140.116 148.961C140.053 148.963 139.989 148.963 139.925 148.966H139.866C139.78 148.966 139.691 148.968 139.605 148.968C139.516 148.968 139.43 148.968 139.343 148.966H139.284C139.221 148.966 139.157 148.963 139.093 148.961L138.993 148.959L138.825 148.954L138.741 148.949L138.577 148.942L138.466 148.935L138.311 148.926L138.225 148.918L138.059 148.907L137.963 148.899L137.791 148.885L137.725 148.878L137.541 148.859L137.459 148.85L137.281 148.831L137.215 148.824L137.013 148.798L136.963 148.79C136.893 148.781 136.824 148.771 136.754 148.762L136.711 148.755C132.509 148.139 128.717 146.205 125.732 143.366C122.483 140.278 120.19 136.122 119.357 131.435H119.362C119.137 130.162 119.019 128.849 119.019 127.508C119.019 126.164 119.137 124.851 119.364 123.577H119.36C120.19 118.889 122.486 114.735 125.735 111.647C128.663 108.863 132.366 106.951 136.468 106.297L136.481 106.294C136.561 106.282 136.643 106.268 136.724 106.256L136.733 106.254C136.813 106.242 136.895 106.23 136.974 106.221L137.002 106.218C137.075 106.209 137.147 106.199 137.22 106.19L137.27 106.183C137.336 106.176 137.402 106.169 137.468 106.161L137.536 106.154L137.706 106.138L137.806 106.128L137.957 106.116L138.057 106.109L138.223 106.097L138.309 106.093L138.464 106.083L138.575 106.076L138.739 106.069L138.823 106.064L138.991 106.06L139.091 106.057C139.155 106.055 139.218 106.055 139.282 106.052H139.343C139.43 106.052 139.518 106.05 139.605 106.05C139.691 106.05 139.78 106.05 139.866 106.052H139.928C139.991 106.052 140.055 106.055 140.119 106.057L140.219 106.06L140.387 106.064L140.471 106.069L140.635 106.076L140.746 106.083L140.901 106.093L140.987 106.097L141.153 106.109L141.253 106.116L141.403 106.128L141.503 106.138L141.674 106.154L141.742 106.161L141.94 106.183L141.99 106.19C142.062 106.199 142.135 106.209 142.208 106.218L142.235 106.221C142.315 106.23 142.397 106.242 142.476 106.254L142.485 106.256C142.567 106.268 142.647 106.28 142.729 106.294L142.742 106.297C146.846 106.951 150.549 108.863 153.475 111.647C156.324 114.356 158.438 117.882 159.477 121.87L147.585 123.238C146.957 121.968 146.061 120.866 144.97 120.015C143.658 118.991 142.076 118.332 140.362 118.181L140.337 118.178C140.28 118.174 140.223 118.169 140.164 118.166L140.071 118.162H140.064L139.978 118.157H139.973L139.909 118.155L139.864 118.152L139.812 118.15L139.748 118.148H139.719H139.696H139.603H139.509H139.487H139.457L139.393 118.15L139.341 118.152L139.296 118.155L139.232 118.157H139.227L139.141 118.162H139.134L139.041 118.166C138.984 118.171 138.925 118.174 138.868 118.178L138.843 118.181C137.129 118.332 135.547 118.991 134.233 120.015C133.048 120.939 132.091 122.162 131.461 123.574H131.457C130.925 124.769 130.627 126.1 130.627 127.506C130.627 128.908 130.922 130.238 131.454 131.432H131.47V131.435Z" fill="white"/>
<path fill-rule="evenodd" clip-rule="evenodd" d="M207.863 176.817H238.077C256.899 176.817 272.022 160.724 272.022 141.435V109.941L251.768 131.053H265.668V131.055C263.085 134.176 259.998 136.556 252.15 136.556H246.489L237.127 146.314H262.164V146.316C259.582 149.437 256.494 151.817 248.647 151.817H231.848L222.497 161.563H253.239V161.566C250.656 164.687 247.569 167.066 239.721 167.066H217.221L207.863 176.817Z" fill="white"/>
<path fill-rule="evenodd" clip-rule="evenodd" d="M188.241 106.052L180.252 135.018L172.263 106.052H160.677L172.511 148.968H187.993L199.831 106.052H188.241Z" fill="white"/>
<path fill-rule="evenodd" clip-rule="evenodd" d="M64.1784 106.052H52.7543V130.901C52.7543 132.6 52.0928 134.141 51.0242 135.255C49.9557 136.368 48.4779 137.058 46.8479 137.058C45.2178 137.058 43.74 136.368 42.6715 135.255C41.603 134.141 40.9414 132.6 40.9414 130.901V106.052H29.5173V130.901C29.5173 135.89 31.4566 140.409 34.594 143.677C37.7291 146.944 42.0623 148.968 46.8502 148.968C51.6358 148.968 55.969 146.947 59.1063 143.677C62.2437 140.406 64.183 135.89 64.183 130.901V106.052H64.1784Z" fill="white"/>
<path fill-rule="evenodd" clip-rule="evenodd" d="M204.132 172.928V151.814L204.135 146.314L204.132 141.437C204.132 141.004 204.139 140.572 204.155 140.141V140.139C204.162 139.982 204.166 139.826 204.176 139.669H204.18V139.584C204.187 139.456 204.194 139.326 204.2 139.198H204.203V139.16C204.21 139.049 204.216 138.937 204.226 138.826H204.228V138.804C204.235 138.712 204.241 138.62 204.248 138.527H204.251V138.492C204.257 138.413 204.264 138.333 204.271 138.255H204.276V138.21C204.282 138.134 204.289 138.058 204.296 137.982H204.298V137.951C204.312 137.804 204.328 137.657 204.344 137.511H204.346V137.484C204.353 137.418 204.36 137.354 204.369 137.288H204.371V137.271C204.378 137.21 204.385 137.15 204.392 137.089H204.394V137.067C204.401 137.008 204.407 136.949 204.414 136.89H204.417V136.873C204.423 136.811 204.432 136.752 204.439 136.691V136.686L204.455 136.563C204.464 136.489 204.476 136.416 204.485 136.345H204.487V136.335C204.494 136.288 204.501 136.243 204.507 136.195H204.512V136.167L204.53 136.046H204.537V136.003L204.557 135.871H204.562V135.845L204.58 135.721H204.585V135.693L204.603 135.574H204.607V135.539L204.628 135.418H204.633V135.394C204.669 135.179 204.705 134.963 204.746 134.75H204.751V134.719L204.769 134.624H204.776V134.591L204.794 134.499H204.801V134.465L204.819 134.373H204.826V134.342L204.844 134.247H204.848V134.221L204.869 134.124H204.873V134.105L204.894 134.001H204.896V133.989L204.919 133.875C204.942 133.769 204.964 133.66 204.989 133.553H204.992V133.544L205.012 133.454H205.017V133.437L205.035 133.354H205.039V133.33L205.062 133.231V133.226L205.085 133.131H205.087V133.124L205.108 133.032H205.11V133.022L205.13 132.932H205.133V132.92L205.153 132.833H205.155V132.821L205.178 132.733H205.18V132.724L205.203 132.634H205.205V132.627L205.228 132.534V132.532C205.26 132.409 205.289 132.285 205.324 132.162V132.16C205.337 132.103 205.353 132.046 205.369 131.989H205.371V131.984L205.389 131.918H205.396V131.894L205.417 131.818H205.419V131.807L205.435 131.745H205.442V131.721L205.462 131.645H205.465V131.634L205.483 131.57H205.49V131.548L205.512 131.47H205.515V131.463L205.533 131.397H205.537V131.38L205.56 131.297L205.581 131.224H205.583V131.214C205.599 131.162 205.615 131.108 205.63 131.055L205.656 130.975V130.972L205.678 130.901H205.681V130.894L205.701 130.828H205.706V130.816L205.724 130.752H205.728V130.736L205.746 130.676H205.751V130.657C205.878 130.247 206.013 129.837 206.153 129.435H206.156V129.427L206.178 129.361L206.222 129.238H206.226V129.226L206.249 129.164H206.251V129.16L206.294 129.039H206.299V129.027L206.322 128.965H206.324V128.961C206.338 128.92 206.354 128.88 206.367 128.84H206.372V128.83C206.394 128.766 206.419 128.705 206.442 128.641V128.638C206.488 128.515 206.535 128.392 206.583 128.269H206.585V128.264C206.601 128.224 206.617 128.183 206.631 128.145V128.143L206.649 128.096H206.654V128.081L206.697 127.97H206.701V127.961L206.747 127.847H206.749V127.842L206.767 127.797H206.774V127.783L206.82 127.674H206.822V127.667C206.845 127.612 206.867 127.555 206.89 127.501H206.892V127.494C206.915 127.439 206.938 127.382 206.963 127.328H206.965V127.323C207.026 127.176 207.09 127.027 207.154 126.88V126.878L207.174 126.83H207.177V126.823L207.195 126.78H207.199V126.769C207.231 126.697 207.261 126.626 207.292 126.558V126.555L207.313 126.508H207.315V126.503L207.336 126.458H207.34V126.449L207.358 126.408H207.363V126.397C207.417 126.276 207.472 126.155 207.529 126.036V126.034C207.558 125.968 207.59 125.904 207.622 125.837H207.624V125.833L207.645 125.788H207.647V125.783L207.668 125.738H207.67V125.733L207.69 125.688H207.693V125.683L207.713 125.638H207.715V125.633L207.736 125.588H207.738V125.584L207.761 125.539H207.763V125.534L207.786 125.489H207.788V125.487L207.811 125.439V125.437L207.833 125.389V125.387L207.859 125.34C207.929 125.197 207.999 125.058 208.07 124.918H208.072V124.913L208.095 124.868V124.866C208.143 124.776 208.188 124.686 208.236 124.596H208.238V124.591L208.261 124.546C208.291 124.489 208.322 124.43 208.352 124.373H208.356V124.366L208.379 124.323V124.321C208.402 124.28 208.422 124.24 208.445 124.2H208.452V124.188L208.472 124.15H208.475V124.145C208.504 124.088 208.536 124.034 208.566 123.977H208.57V123.97L208.593 123.927C208.616 123.887 208.638 123.844 208.661 123.804H208.663V123.799C208.741 123.66 208.82 123.52 208.897 123.382H208.9V123.378L208.968 123.259H208.97V123.254C208.993 123.214 209.016 123.174 209.038 123.136H209.041V123.131L209.082 123.06H209.088V123.048L209.111 123.01V123.008L209.154 122.934H209.159V122.927L209.227 122.811H209.229V122.809L209.273 122.738H209.277V122.728C209.3 122.69 209.323 122.65 209.348 122.612H209.35V122.61C209.405 122.52 209.459 122.43 209.516 122.34V122.337L209.561 122.264H209.564V122.261L209.607 122.19H209.609V122.186L209.652 122.117H209.657V122.11L209.7 122.041H209.705V122.034L209.748 121.968H209.752V121.958L209.796 121.892H209.8V121.885L209.843 121.818H209.848V121.811L209.891 121.745H209.896V121.738L209.939 121.671H209.943V121.664L209.989 121.595H209.991V121.591L210.037 121.522H210.039V121.52L210.086 121.449C210.116 121.404 210.148 121.356 210.177 121.311L210.252 121.2H210.255V121.197L210.321 121.1H210.327V121.084L210.373 121.017H210.375V121.013L210.441 120.918H210.448V120.908L210.493 120.844H210.496V120.84L210.509 120.818H210.518V120.804L210.562 120.742H210.566V120.735L210.578 120.719H210.589V120.702L210.612 120.669V120.667L210.628 120.643H210.634V120.633L210.644 120.619H210.657V120.6L210.678 120.569H210.68V120.565L210.693 120.543H210.703V120.531L210.746 120.47H210.75V120.465L210.764 120.446H210.773V120.432L210.816 120.37H210.821V120.363L210.834 120.344H210.846V120.33L210.889 120.271H210.894V120.264L210.907 120.247H210.919V120.233L210.962 120.174H210.966V120.167L211.035 120.074H211.039V120.069L211.11 119.975H211.112V119.972L211.182 119.875C211.212 119.835 211.244 119.792 211.273 119.752H211.276V119.747L211.346 119.652L211.364 119.629H211.369V119.622L211.439 119.529H211.441V119.527L211.46 119.503H211.466V119.496L211.537 119.406H211.539V119.403L211.557 119.38H211.564V119.373L211.578 119.356H211.589V119.342L211.635 119.283V119.28L211.653 119.257H211.66V119.249L211.673 119.233H211.685V119.219L211.753 119.133H211.758V119.129L211.773 119.11H211.782V119.098L211.794 119.084H211.807V119.067L211.853 119.01H211.855V119.008L211.873 118.986H211.88V118.979L211.894 118.963H211.905V118.948L211.973 118.861H211.976V118.858L211.994 118.837H212.001V118.828L212.014 118.811H212.026V118.797L212.096 118.712H212.099V118.709L212.117 118.688H212.121V118.681C212.153 118.643 212.185 118.603 212.217 118.565L212.237 118.541H212.242V118.536C212.28 118.489 212.321 118.439 212.36 118.392C212.415 118.325 212.469 118.259 212.526 118.193H212.528V118.19L212.549 118.166H212.553V118.162L212.569 118.143H212.576V118.133L212.59 118.117H212.599V118.105C212.63 118.067 212.662 118.029 212.694 117.991L212.715 117.967H212.717V117.965L212.735 117.944H212.74V117.939L212.756 117.92H212.762V117.911L212.776 117.894H212.785V117.882L212.796 117.87H212.81V117.856C212.842 117.821 212.874 117.783 212.906 117.747L212.926 117.723H212.928V117.721L212.947 117.7H212.951V117.693L212.967 117.674H212.974V117.664L212.987 117.648H212.996V117.636L213.008 117.621H213.019V117.607L213.028 117.595H213.042V117.579C213.081 117.534 213.119 117.489 213.16 117.446H213.163V117.444L213.183 117.42H213.185V117.418L213.203 117.396H213.208V117.392L213.226 117.373H213.233V117.366L213.249 117.349H213.258V117.339C213.328 117.261 213.397 117.183 213.467 117.107V141.44V153.606V163.182L204.132 172.928ZM218.767 112.375L218.801 112.351H218.805V112.346L218.869 112.301H218.876V112.294L218.937 112.252H218.948V112.245C218.967 112.23 218.987 112.216 219.008 112.202H219.021V112.192L219.044 112.178H219.046V112.176L219.08 112.152H219.094V112.143L219.114 112.128H219.117V112.126L219.185 112.079H219.187V112.076L219.255 112.029H219.26V112.027C219.283 112.01 219.303 111.996 219.326 111.979H219.33V111.974L219.396 111.929H219.401V111.927C219.424 111.91 219.446 111.896 219.469 111.88H219.474V111.877L219.542 111.83H219.544V111.827L219.615 111.78H219.617V111.778C219.703 111.721 219.787 111.662 219.874 111.605H219.878V111.6L219.946 111.555H219.949V111.553C219.985 111.529 220.021 111.503 220.058 111.479H220.067V111.474C220.09 111.46 220.112 111.446 220.135 111.429H220.14V111.427L220.174 111.406H220.187V111.396L220.251 111.356H220.26V111.351C220.283 111.337 220.306 111.323 220.328 111.306H220.333V111.304L220.367 111.282H220.381V111.273C220.403 111.259 220.424 111.247 220.447 111.233H220.453V111.228L220.485 111.207H220.501V111.197L220.565 111.157H220.574V111.152C220.597 111.138 220.622 111.121 220.644 111.107H220.647L220.685 111.083H220.694V111.076C220.717 111.062 220.742 111.048 220.765 111.034H220.767L220.806 111.01H220.815V111.005C220.933 110.932 221.051 110.858 221.172 110.787L221.213 110.763H221.22V110.759C221.258 110.735 221.297 110.711 221.336 110.69H221.338V110.688L221.377 110.664H221.386V110.657L221.42 110.638H221.433V110.628L221.504 110.588H221.506L221.547 110.564H221.554V110.56L221.59 110.538H221.602V110.531L221.633 110.512H221.649V110.503C221.672 110.489 221.695 110.477 221.718 110.463H221.72V110.46L221.761 110.436H221.767V110.432L221.804 110.41H221.815V110.403L221.847 110.384H221.863V110.375L221.979 110.308H221.983V110.306L222.022 110.282H222.031V110.278L222.068 110.259H222.079V110.252C222.149 110.211 222.22 110.173 222.29 110.135H222.293V110.133C222.522 110.008 222.752 109.884 222.984 109.763L223.032 109.737L223.079 109.714C223.095 109.707 223.111 109.697 223.127 109.69C223.241 109.631 223.354 109.574 223.468 109.517H223.484V109.51L223.518 109.493H223.532V109.486L223.568 109.47H223.579V109.465L223.618 109.446H223.627V109.441L223.668 109.42H223.673V109.417L223.718 109.396H223.72V109.394L223.768 109.37C223.852 109.327 223.939 109.287 224.025 109.247H224.03V109.244L224.077 109.221C224.111 109.204 224.146 109.188 224.18 109.171H224.196V109.164L224.232 109.147H224.243V109.143L224.286 109.124H224.291V109.121C224.325 109.105 224.359 109.09 224.393 109.074H224.409V109.067L224.446 109.05H224.457V109.045L224.5 109.026H224.505V109.024L224.555 109H224.578V108.991L224.609 108.977H224.625V108.97L224.664 108.951H224.673V108.948L224.721 108.927L224.775 108.903H224.791V108.896L224.83 108.88H224.839V108.875L224.887 108.853C224.905 108.846 224.923 108.837 224.941 108.83H224.957V108.823C224.971 108.816 224.984 108.811 224.998 108.806H225.005V108.804C225.059 108.78 225.114 108.756 225.169 108.733H225.171C225.287 108.683 225.403 108.633 225.519 108.586H225.528V108.581C225.564 108.567 225.601 108.55 225.637 108.536H225.648V108.524C225.685 108.51 225.721 108.493 225.76 108.479H225.769V108.477L225.821 108.455H225.839V108.448L225.882 108.432H225.887V108.429L225.944 108.406H225.96V108.398L226.005 108.38H226.03V108.37L226.067 108.356H226.078V108.351L226.13 108.332H226.151V108.325L226.194 108.308H226.198V108.306L226.258 108.282H226.269V108.278L226.321 108.256H226.339V108.249L226.383 108.233H226.387L226.449 108.209H226.46V108.204C226.521 108.18 226.585 108.157 226.646 108.133H226.651V108.131C226.762 108.09 226.871 108.048 226.983 108.007H226.985L227.051 107.984H227.056V107.981L227.119 107.958H227.126V107.955C227.147 107.948 227.167 107.941 227.187 107.934H227.199V107.929C227.219 107.922 227.24 107.915 227.258 107.908H227.269V107.903L227.331 107.882H227.342V107.877L227.401 107.856H227.412V107.851L227.472 107.83H227.483V107.825C227.503 107.818 227.522 107.811 227.542 107.804H227.553V107.799L227.615 107.778H227.626V107.775C227.647 107.768 227.669 107.761 227.69 107.754H227.699V107.752L227.765 107.73H227.769V107.728L227.838 107.704H227.84C227.863 107.697 227.888 107.688 227.91 107.68L227.985 107.657H228.006V107.65L228.063 107.631H228.076V107.626L228.124 107.609V131.631V139.776V147.921L218.769 157.672V153.599V125.629V112.375H218.767ZM233.399 106.391H233.408V106.387C233.453 106.379 233.499 106.372 233.544 106.368H233.599V106.361C233.642 106.353 233.685 106.349 233.728 106.344H233.79V106.334C233.831 106.33 233.871 106.323 233.912 106.318H233.981V106.311C234.026 106.306 234.069 106.299 234.115 106.294H234.171V106.287C234.219 106.28 234.269 106.275 234.317 106.268H234.36V106.263C234.422 106.256 234.481 106.249 234.542 106.244H234.551C234.71 106.228 234.872 106.211 235.031 106.195H235.099V106.188C235.17 106.18 235.24 106.176 235.311 106.169H235.411V106.161C235.479 106.157 235.547 106.15 235.615 106.145H235.742V106.135C235.817 106.131 235.89 106.124 235.965 106.119H236.052V106.114C236.363 106.095 236.677 106.081 236.993 106.069H237.338V106.06C237.584 106.055 237.829 106.05 238.077 106.05H242.756V128.617V132.667L233.399 142.421V139.778V116.271V106.391ZM248.033 106.05H253.434H268.289L248.033 127.164V115.799V113.252V106.05Z" fill="white"/>
<path fill-rule="evenodd" clip-rule="evenodd" d="M109.898 100.477C113.16 100.477 115.806 103.232 115.806 106.635C115.806 110.036 113.162 112.794 109.898 112.794C106.635 112.794 103.989 110.038 103.989 106.635C103.989 103.235 106.633 100.477 109.898 100.477Z" fill="white"/>
<path fill-rule="evenodd" clip-rule="evenodd" d="M115.588 121.515V140.892V147.29H104.207V140.892V121.515V115.117H115.588V121.515Z" fill="white"/>
<path d="M100.758 147.29V126.98C100.758 124.681 100.579 123.562 100.342 122.508C99.8649 120.396 98.8532 118.285 97.2436 116.918C94.3244 114.309 90.5096 114.247 89.3774 114.247C86.2196 114.247 82.9413 115.117 80.677 117.477C80.0813 118.098 79.9608 118.223 79.1878 119.403V115.119H67.6273V147.293H79.8425V130.15C79.8425 128.783 79.7835 124.87 84.3122 124.87C87.1131 124.87 88.0066 126.423 88.3044 127.541C88.484 128.288 88.484 128.97 88.484 129.714V147.293H100.758V147.29Z" fill="white"/>
<path d="M44.1698 159.701L42.0669 158.644C41.9896 158.886 41.9463 158.987 41.8895 159.104C41.7349 159.378 41.3393 159.976 40.4913 159.976C40.3049 159.976 39.9526 159.964 39.5661 159.653C39.191 159.343 38.8499 158.746 38.8499 157.632C38.8499 157.426 38.8158 156.255 39.5887 155.658C39.7433 155.544 40.0299 155.371 40.48 155.371C41.4712 155.359 41.8577 156.198 41.9895 156.473C42.0236 156.554 42.0668 156.634 42.0986 156.715L44.1584 155.646C43.9924 155.336 43.8833 155.141 43.6514 154.866C43.2217 154.35 42.1646 153.385 40.3913 153.385C39.7093 153.385 38.2224 153.499 37.1539 155.073C36.4059 156.163 36.3491 157.288 36.3491 157.781C36.3491 158.355 36.4492 159.973 37.7473 161.111C38.5067 161.788 39.3888 162.04 40.38 162.04C42.1101 162.04 43.1013 161.213 43.5628 160.663C43.7515 160.435 43.8947 160.229 44.1698 159.701Z" fill="white"/>
<path d="M52.0269 161.788V160.032H47.9937V158.426H51.454V156.67H48.0051V155.464H51.6949V153.684H45.5385V161.788H52.0269Z" fill="white"/>
<path d="M60.9069 161.788V153.684H58.6039L58.638 158.402L56.0054 153.684H53.3955V161.788H55.6871L55.6644 157.082L58.2516 161.788H60.9069Z" fill="white"/>
<path d="M68.5435 155.682V153.684H62.1323V155.682H64.1148V161.788H66.5724V155.682H68.5435Z" fill="white"/>
<path d="M77.2372 161.788L75.332 158.516C75.7071 158.367 75.8504 158.298 76.0141 158.182C76.6415 157.746 76.928 157.044 76.928 156.276C76.928 155.566 76.6961 155.058 76.5642 154.819C76.0027 153.843 75.0114 153.75 74.6704 153.717C74.4499 153.693 74.218 153.682 73.9975 153.682H69.7894V161.786H72.2561V158.928H72.9722L74.4818 161.786H77.2372V161.788ZM74.4727 156.324C74.4727 156.485 74.4295 156.634 74.4181 156.679C74.2408 157.208 73.7361 157.265 73.2837 157.265H72.2583V155.381H73.2609C73.5474 155.381 73.8338 155.393 74.0862 155.542C74.1294 155.566 74.2408 155.634 74.3181 155.748C74.4181 155.912 74.4727 156.13 74.4727 156.324Z" fill="white"/>
<path d="M86.481 157.667C86.481 155.968 85.7422 154.968 85.2807 154.499C84.2008 153.397 82.8253 153.385 82.3183 153.385C80.6996 153.385 79.7744 154.063 79.2901 154.556C78.2216 155.67 78.1329 157.196 78.1329 157.736C78.1329 158.919 78.508 160.101 79.2674 160.893C80.3359 162.03 81.7795 162.051 82.2752 162.051C82.7708 162.051 84.1917 162.028 85.292 160.881C86.4038 159.722 86.481 158.163 86.481 157.667ZM84.003 157.656C84.003 158.632 83.7507 159.16 83.4528 159.492C83.1437 159.859 82.7799 159.997 82.3183 159.997C81.9432 159.997 81.7022 159.904 81.5476 159.836C81.3384 159.732 81.1725 159.594 81.0293 159.412C80.5883 158.826 80.5996 157.885 80.5996 157.736C80.5996 156.784 80.8861 156.21 81.1612 155.911C81.5681 155.464 82.1296 155.43 82.3183 155.43C82.4616 155.43 82.8254 155.454 83.1778 155.672C84.0371 156.21 84.003 157.438 84.003 157.656Z" fill="white"/>
<path d="M98.2234 158.54V153.684H95.7454V158.748C95.7454 158.99 95.7454 159.172 95.6681 159.378C95.4476 159.987 94.8315 160.021 94.6655 160.021C94.4904 160.021 93.8721 159.985 93.6743 159.367C93.5856 159.113 93.5969 158.826 93.5969 158.746V153.682H91.1303V158.492C91.1303 159.343 91.1848 159.675 91.328 160.077C91.6918 161.078 92.4852 161.478 92.8149 161.627C93.5856 161.983 94.3563 162.006 94.6427 162.006C96.0295 162.006 97.4414 161.445 97.9802 159.976C98.1575 159.495 98.2234 159.056 98.2234 158.54Z" fill="white"/>
<path d="M107.436 161.788V153.684H105.135L105.167 158.402L102.534 153.684H99.924V161.788H102.216L102.193 157.082L104.782 161.788H107.436Z" fill="white"/>
<path d="M111.625 161.788V153.684H109.159V161.788H111.625Z" fill="white"/>
<path d="M120.66 153.684H118.139L116.761 158.656L115.372 153.684H112.862L115.461 161.788H118.027L120.66 153.684Z" fill="white"/>
<path d="M128.374 161.788V160.032H124.343V158.426H127.801V156.67H124.352V155.464H128.044V153.684H121.886V161.788H128.374Z" fill="white"/>
<path d="M137.188 161.788L135.283 158.516C135.658 158.367 135.801 158.298 135.965 158.182C136.593 157.746 136.879 157.044 136.879 156.276C136.879 155.566 136.647 155.058 136.515 154.819C135.954 153.843 134.962 153.75 134.621 153.717C134.401 153.693 134.169 153.682 133.949 153.682H129.74V161.786H132.207V158.928H132.923L134.433 161.786H137.188V161.788ZM134.424 156.324C134.424 156.485 134.38 156.634 134.369 156.679C134.192 157.208 133.687 157.265 133.235 157.265H132.209V155.381H133.212C133.498 155.381 133.785 155.393 134.037 155.542C134.08 155.566 134.192 155.634 134.269 155.748C134.369 155.912 134.424 156.13 134.424 156.324Z" fill="white"/>
<path d="M145.509 159.16C145.509 157.542 144.309 157.094 143.824 156.933C143.054 156.67 142.326 156.565 142.051 156.52C141.842 156.485 141.378 156.395 141.18 156.267C141.071 156.186 140.983 156.049 140.983 155.9C140.983 155.625 141.246 155.497 141.292 155.475C141.524 155.371 141.822 155.371 141.876 155.371C142.46 155.371 143.242 155.497 143.693 155.933C143.758 155.99 143.813 156.058 143.913 156.196L145.466 154.852C145.257 154.634 145.113 154.473 144.87 154.291C143.758 153.44 142.358 153.419 141.962 153.419C141.665 153.419 139.605 153.395 138.811 154.911C138.536 155.428 138.525 155.921 138.525 156.139C138.514 157.023 138.955 157.563 139.198 157.781C139.573 158.125 140.146 158.402 141.214 158.62C141.908 158.769 142.403 158.838 142.679 158.942C142.91 159.023 142.997 159.125 143.054 159.241C143.065 159.276 143.108 159.345 143.108 159.435C143.108 159.838 142.624 160.056 141.931 160.056C141.392 160.056 140.576 159.883 140.135 159.483C140.025 159.39 139.925 159.265 139.759 158.99L137.877 160.241C138.141 160.596 138.35 160.838 138.702 161.113C139.628 161.836 140.707 162.032 141.842 162.032C142.172 162.032 143.483 162.056 144.486 161.286C144.825 161.021 145.509 160.367 145.509 159.16Z" fill="white"/>
<path d="M149.522 161.788V153.684H147.053V161.788H149.522Z" fill="white"/>
<path d="M157.156 155.682V153.684H150.747V155.682H152.73V161.788H155.185V155.682H157.156Z" fill="white"/>
<path d="M163.726 151.755H161.337L160.632 153.132H162.076L163.726 151.755ZM165.938 161.788L163.031 153.684H160.232L157.258 161.788H159.902L160.243 160.651H162.953L163.294 161.788H165.938ZM162.448 158.85H160.775L161.623 155.992L162.448 158.85Z" fill="white"/>
<path d="M174.666 161.788L172.761 158.516C173.136 158.367 173.279 158.298 173.443 158.182C174.07 157.746 174.357 157.044 174.357 156.276C174.357 155.566 174.125 155.058 173.993 154.819C173.432 153.843 172.44 153.75 172.099 153.717C171.879 153.693 171.647 153.682 171.426 153.682H167.218V161.786H169.685V158.928H170.401L171.911 161.786H174.666V161.788ZM171.902 156.324C171.902 156.485 171.858 156.634 171.847 156.679C171.67 157.208 171.165 157.265 170.713 157.265H169.687V155.381H170.69C170.976 155.381 171.263 155.393 171.515 155.542C171.558 155.566 171.67 155.634 171.747 155.748C171.847 155.912 171.902 156.13 171.902 156.324Z" fill="white"/>
<path d="M178.226 161.788V153.684H175.76V161.788H178.226Z" fill="white"/>
<path d="M188.1 157.667C188.1 155.968 187.361 154.968 186.9 154.499C185.82 153.397 184.444 153.385 183.937 153.385C182.319 153.385 181.393 154.063 180.909 154.556C179.841 155.67 179.752 157.196 179.752 157.736C179.752 158.919 180.127 160.101 180.886 160.893C181.955 162.03 183.398 162.051 183.894 162.051C184.39 162.051 185.811 162.028 186.911 160.881C188.023 159.722 188.1 158.163 188.1 157.667ZM185.622 157.656C185.622 158.632 185.37 159.16 185.072 159.492C184.763 159.859 184.399 159.997 183.937 159.997C183.562 159.997 183.321 159.904 183.167 159.836C182.957 159.732 182.791 159.594 182.648 159.412C182.207 158.826 182.218 157.885 182.218 157.736C182.218 156.784 182.505 156.21 182.78 155.911C183.187 155.464 183.749 155.43 183.937 155.43C184.08 155.43 184.444 155.454 184.797 155.672C185.654 156.21 185.622 157.438 185.622 157.656Z" fill="white"/>
<path d="M70.4464 173.748L67.5749 172.308C67.4704 172.637 67.409 172.777 67.3339 172.936C67.1225 173.312 66.5814 174.128 65.4243 174.128C65.1696 174.128 64.6876 174.111 64.1602 173.689C63.6487 173.265 63.1827 172.452 63.1827 170.931C63.1827 170.649 63.1372 169.049 64.1898 168.234C64.4013 168.078 64.7923 167.843 65.4084 167.843C66.7611 167.826 67.2885 168.971 67.4681 169.348C67.5136 169.457 67.5726 169.568 67.6181 169.677L70.4304 168.22C70.2053 167.796 70.0553 167.53 69.7393 167.153C69.1527 166.447 67.7091 165.132 65.2878 165.132C64.3557 165.132 62.3255 165.289 60.8682 167.435C59.8452 168.924 59.7701 170.459 59.7701 171.135C59.7701 171.919 59.9066 174.128 61.6799 175.68C62.7166 176.604 63.9193 176.95 65.2743 176.95C67.6341 176.95 68.9891 175.822 69.6188 175.068C69.8757 174.751 70.0713 174.469 70.4464 173.748Z" fill="white"/>
<path d="M75.9913 176.602V165.535H72.6243V176.602H75.9913Z" fill="white"/>
<path d="M88.875 171.021C88.875 168.779 88.1384 167.542 87.4473 166.836C86.3788 165.769 85.0874 165.63 83.6733 165.566C83.2073 165.549 82.7254 165.535 82.2593 165.535H78.6513V176.599H83.0709C83.9439 176.599 84.9055 176.616 85.7626 176.348C88.002 175.675 88.5453 173.464 88.709 172.744C88.7704 172.447 88.875 171.836 88.875 171.021ZM85.4921 171.068C85.4921 171.241 85.5217 173.232 84.2736 173.857C83.9416 174.03 83.6574 174.061 83.2959 174.061H82.0183V168.123H83.2824C83.9599 168.123 84.2144 168.232 84.5304 168.435C85.5217 169.108 85.4921 170.973 85.4921 171.068Z" fill="white"/>
<path d="M101.713 176.602L97.7438 165.537H93.9243L89.864 176.602H93.472L93.938 175.049H97.6369L98.103 176.602H101.713ZM96.9457 172.59H94.661L95.8181 168.687L96.9457 172.59Z" fill="white"/>
<path d="M113.994 171.021C113.994 168.779 113.258 167.542 112.567 166.836C111.498 165.769 110.207 165.63 108.793 165.566C108.327 165.549 107.845 165.535 107.379 165.535H103.771V176.599H108.19C109.063 176.599 110.025 176.616 110.882 176.348C113.121 175.675 113.665 173.464 113.828 172.744C113.89 172.447 113.994 171.836 113.994 171.021ZM110.612 171.068C110.612 171.241 110.641 173.232 109.393 173.857C109.063 174.03 108.777 174.061 108.415 174.061H107.138V168.123H108.402C109.079 168.123 109.334 168.232 109.65 168.435C110.641 169.108 110.612 170.973 110.612 171.068Z" fill="white"/>
<path d="M125.223 176.602V174.203H119.719V172.009H124.441V169.611H119.735V167.966H124.771V165.535H116.366V176.602H125.223Z" fill="white"/>
<path d="M141.667 165.535H138.223L136.342 172.322L134.449 165.535H131.02L134.569 176.602H138.073L141.667 165.535Z" fill="white"/>
<path d="M152.504 176.602V174.203H147V172.009H151.722V169.611H147.016V167.966H152.052V165.535H143.647V176.602H152.504Z" fill="white"/>
<path d="M164.845 176.602L162.244 172.135C162.755 171.931 162.951 171.836 163.176 171.68C164.033 171.085 164.424 170.127 164.424 169.078C164.424 168.106 164.108 167.416 163.929 167.087C163.162 165.755 161.807 165.63 161.341 165.582C161.041 165.551 160.725 165.535 160.425 165.535H154.68V176.599H158.047V172.696H159.025L161.084 176.599H164.845V176.602ZM161.071 169.142C161.071 169.362 161.009 169.566 160.996 169.627C160.755 170.348 160.064 170.426 159.448 170.426H158.049V167.855H159.418C159.809 167.855 160.2 167.871 160.546 168.075C160.605 168.106 160.757 168.201 160.862 168.357C160.996 168.575 161.071 168.874 161.071 169.142Z" fill="white"/>
<path d="M176.871 171.021C176.871 168.779 176.135 167.542 175.444 166.836C174.375 165.769 173.084 165.63 171.67 165.566C171.204 165.549 170.722 165.535 170.256 165.535H166.648V176.599H171.067C171.94 176.599 172.902 176.616 173.759 176.348C175.998 175.675 176.539 173.464 176.705 172.744C176.765 172.447 176.871 171.836 176.871 171.021ZM173.488 171.068C173.488 171.241 173.518 173.232 172.27 173.857C171.938 174.03 171.654 174.061 171.292 174.061H170.015V168.123H171.279C171.956 168.123 172.211 168.232 172.527 168.435C173.518 169.108 173.488 170.973 173.488 171.068Z" fill="white"/>
<path d="M188.1 176.602V174.203H182.596V172.009H187.318V169.611H182.612V167.966H187.647V165.535H179.243V176.602H188.1Z" fill="white"/>
</svg>
