<svg width="60" height="64" viewBox="0 0 60 64" fill="none" xmlns="http://www.w3.org/2000/svg">
<mask id="mask0_325_227" style="mask-type:alpha" maskUnits="userSpaceOnUse" x="0" y="0" width="60" height="64">
<rect x="0.55072" width="58.8986" height="64" fill="#D9D9D9"/>
</mask>
<g mask="url(#mask0_325_227)">
<path d="M62.768 -1.39136H0.55072V63.9865H62.768V-1.39136Z" fill="#DA9406"/>
<path fill-rule="evenodd" clip-rule="evenodd" d="M27.6902 29.7888C27.8198 30.0817 28.0166 30.3353 28.2603 30.5269C28.5404 30.7471 28.8808 30.8861 29.2489 30.9102L29.268 30.9112H29.269L29.2867 30.9122L29.3012 30.9127L29.3097 30.9132L29.3209 30.9136H29.3335H29.3396H29.3443H29.3634H29.3826H29.3873H29.3934H29.406L29.4172 30.9132L29.4256 30.9127L29.4401 30.9122L29.4579 30.9112H29.4589L29.478 30.9102C29.8465 30.8861 30.1865 30.7471 30.4666 30.5269C30.6906 30.351 30.8749 30.1225 31.004 29.8596L33.4507 30.1431C33.237 30.9702 32.8021 31.7014 32.2161 32.263C31.6016 32.8517 30.8216 33.2532 29.9578 33.3805L29.9489 33.382C29.9349 33.3839 29.9204 33.3859 29.9059 33.3879L29.8961 33.3893L29.8545 33.3947L29.8414 33.3962L29.8049 33.4001L29.7881 33.4021L29.7502 33.406L29.7366 33.4075L29.7011 33.4105L29.6815 33.4119L29.6473 33.4144L29.6295 33.4159L29.5978 33.4178L29.5748 33.4193L29.5412 33.4208L29.5239 33.4218L29.4892 33.4228L29.4687 33.4232C29.4556 33.4237 29.4425 33.4237 29.4294 33.4242H29.4172C29.3995 33.4242 29.3812 33.4247 29.3634 33.4247C29.3452 33.4247 29.3274 33.4247 29.3097 33.4242H29.2975C29.2844 33.4242 29.2713 33.4237 29.2582 33.4232L29.2377 33.4228L29.203 33.4218L29.1858 33.4208L29.1521 33.4193L29.1292 33.4178L29.0974 33.4159L29.0796 33.4144L29.0455 33.4119L29.0258 33.4105L28.9903 33.4075L28.9767 33.406L28.9388 33.4021L28.922 33.4001L28.8855 33.3962L28.872 33.3947L28.8303 33.3893L28.82 33.3879C28.8055 33.3859 28.7915 33.3839 28.777 33.382L28.7681 33.3805C27.9039 33.2527 27.1239 32.8517 26.5099 32.263C25.8416 31.6227 25.3697 30.7608 25.1986 29.7888H25.1995C25.1532 29.5249 25.1289 29.2527 25.1289 28.9746C25.1289 28.6959 25.1532 28.4237 25.2 28.1593H25.1991C25.3697 27.1873 25.8421 26.3259 26.5103 25.6856C27.1127 25.1082 27.8745 24.7116 28.7181 24.576L28.7209 24.5755C28.7373 24.5731 28.7541 24.5701 28.7709 24.5677L28.7728 24.5672C28.7892 24.5647 28.806 24.5623 28.8224 24.5603L28.828 24.5598C28.843 24.5578 28.8579 24.5559 28.8729 24.5539L28.8832 24.5524C28.8967 24.5509 28.9103 24.5495 28.9239 24.548L28.9379 24.5465L28.973 24.5431L28.9935 24.5411L29.0244 24.5387L29.045 24.5372L29.0791 24.5347L29.0969 24.5337L29.1287 24.5318L29.1516 24.5303L29.1853 24.5288L29.2026 24.5279L29.2372 24.5269L29.2578 24.5264C29.2709 24.5259 29.284 24.5259 29.297 24.5254H29.3097C29.3274 24.5254 29.3457 24.5249 29.3634 24.5249C29.3812 24.5249 29.3995 24.5249 29.4172 24.5254H29.4299C29.4429 24.5254 29.4561 24.5259 29.4691 24.5264L29.4897 24.5269L29.5243 24.5279L29.5416 24.5288L29.5753 24.5303L29.5982 24.5318L29.63 24.5337L29.6478 24.5347L29.6819 24.5372L29.7025 24.5387L29.7334 24.5411L29.7539 24.5431L29.789 24.5465L29.803 24.548L29.8437 24.5524L29.854 24.5539C29.869 24.5559 29.8839 24.5578 29.8989 24.5598L29.9045 24.5603C29.9209 24.5623 29.9377 24.5647 29.9541 24.5672L29.956 24.5677C29.9728 24.5701 29.9892 24.5726 30.006 24.5755L30.0088 24.576C30.8529 24.7116 31.6147 25.1082 32.2166 25.6856C32.8025 26.2473 33.2375 26.9785 33.4512 27.8055L31.0049 28.0891C30.8758 27.8257 30.6916 27.5972 30.4671 27.4207C30.1973 27.2085 29.8718 27.0718 29.5192 27.0404L29.514 27.0399C29.5023 27.0389 29.4906 27.0379 29.4785 27.0375L29.4593 27.0365H29.4579L29.4401 27.0355H29.4392L29.4261 27.035L29.4168 27.0345L29.406 27.034L29.3929 27.0335H29.3868H29.3821H29.363H29.3438H29.3391H29.3331L29.3199 27.034L29.3092 27.0345L29.2999 27.035L29.2867 27.0355H29.2858L29.268 27.0365H29.2667L29.2475 27.0375C29.2358 27.0384 29.2236 27.0389 29.2119 27.0399L29.2068 27.0404C28.8542 27.0718 28.5287 27.2085 28.2584 27.4207C28.0148 27.6124 27.8179 27.866 27.6883 28.1588H27.6874C27.578 28.4065 27.5167 28.6827 27.5167 28.9741C27.5167 29.265 27.5775 29.5407 27.6869 29.7883H27.6902V29.7888Z" fill="white"/>
<path fill-rule="evenodd" clip-rule="evenodd" d="M43.4041 39.1997H49.6191C53.4907 39.1997 56.6015 35.8626 56.6015 31.8625V25.3318L52.4352 29.7097H55.2945V29.7102C54.7632 30.3574 54.1281 30.8507 52.5138 30.8507H51.3494L49.4236 32.8743H54.5738V32.8748C54.0426 33.522 53.4075 34.0154 51.7932 34.0154H48.3377L46.4143 36.0365H52.7378V36.037C52.2066 36.6842 51.5715 37.1776 49.9572 37.1776H45.3289L43.4041 39.1997Z" fill="white"/>
<path fill-rule="evenodd" clip-rule="evenodd" d="M39.3679 24.5254L37.7246 30.5318L36.0813 24.5254H33.6981L36.1322 33.4247H39.3169L41.752 24.5254H39.3679Z" fill="white"/>
<path fill-rule="evenodd" clip-rule="evenodd" d="M13.8483 24.5254H11.4984V29.6783C11.4984 30.0306 11.3623 30.35 11.1425 30.581C10.9227 30.8119 10.6187 30.9549 10.2834 30.9549C9.94814 30.9549 9.64417 30.8119 9.42437 30.581C9.20458 30.35 9.0685 30.0306 9.0685 29.6783V24.5254H6.71857V29.6783C6.71857 30.7127 7.11747 31.6498 7.76283 32.3274C8.40771 33.0051 9.29906 33.4247 10.2839 33.4247C11.2683 33.4247 12.1596 33.0056 12.805 32.3274C13.4504 31.6493 13.8493 30.7127 13.8493 29.6783V24.5254H13.8483Z" fill="white"/>
<path fill-rule="evenodd" clip-rule="evenodd" d="M42.6367 38.3933V34.0149L42.6372 32.8743L42.6367 31.863C42.6367 31.7731 42.6381 31.6837 42.6414 31.5942V31.5937C42.6428 31.5613 42.6437 31.5289 42.6456 31.4965H42.6465V31.4788C42.6479 31.4522 42.6493 31.4252 42.6507 31.3987H42.6512V31.3908C42.6526 31.3677 42.654 31.3446 42.6559 31.3215H42.6564V31.3171C42.6578 31.2979 42.6592 31.2788 42.6606 31.2596H42.661V31.2522C42.6624 31.236 42.6638 31.2193 42.6652 31.2031H42.6662V31.1937C42.6676 31.178 42.669 31.1623 42.6704 31.1466H42.6709V31.1402C42.6737 31.1097 42.6769 31.0792 42.6802 31.0488H42.6807V31.0434C42.6821 31.0296 42.6835 31.0163 42.6854 31.0026H42.6858V30.9992C42.6872 30.9864 42.6886 30.9741 42.69 30.9613H42.6905V30.9569C42.6919 30.9446 42.6933 30.9323 42.6947 30.92H42.6952V30.9166C42.6966 30.9038 42.6985 30.8915 42.6999 30.8788V30.8778L42.7031 30.8522C42.705 30.837 42.7073 30.8218 42.7092 30.807H42.7097V30.805C42.7111 30.7952 42.7125 30.7859 42.7139 30.7761H42.7148V30.7702L42.7186 30.7451H42.72V30.7363L42.7242 30.7087H42.7251V30.7033L42.7289 30.6778H42.7298V30.6719L42.7335 30.6473H42.7344V30.6399L42.7387 30.6149H42.7396V30.61C42.7471 30.5652 42.7546 30.5205 42.763 30.4763H42.7639V30.4699L42.7677 30.4503H42.7691V30.4434L42.7728 30.4242H42.7742V30.4173L42.7779 30.3982H42.7793V30.3918L42.7831 30.3721H42.784V30.3667L42.7882 30.3466H42.7892V30.3426L42.7934 30.321H42.7938V30.3186L42.7985 30.295C42.8032 30.2729 42.8079 30.2503 42.813 30.2281H42.8135V30.2262L42.8177 30.2075H42.8186V30.2041L42.8224 30.1869H42.8233V30.1819L42.828 30.1613V30.1603L42.8327 30.1407H42.8331V30.1392L42.8373 30.12H42.8378V30.1181L42.842 30.0994H42.8425V30.0969L42.8467 30.0788H42.8472V30.0763L42.8518 30.0581H42.8523V30.0561L42.857 30.0375H42.8575V30.036L42.8621 30.0168V30.0163C42.8687 29.9908 42.8747 29.9652 42.8818 29.9397V29.9392C42.8846 29.9274 42.8878 29.9156 42.8911 29.9038H42.8916V29.9028L42.8953 29.8891H42.8967V29.8842L42.9009 29.8684H42.9014V29.866L42.9047 29.8532H42.9061V29.8483L42.9103 29.8326H42.9108V29.8301L42.9145 29.8168H42.9159V29.8124L42.9206 29.7962H42.9211V29.7947L42.9248 29.781H42.9257V29.7775L42.9304 29.7603L42.9346 29.7451H42.9351V29.7431C42.9383 29.7323 42.9416 29.721 42.9449 29.7102L42.9501 29.6935V29.693L42.9547 29.6783H42.9552V29.6768L42.9594 29.663H42.9603V29.6606L42.9641 29.6473H42.965V29.6439L42.9688 29.6316H42.9697V29.6276C42.9959 29.5426 43.0235 29.4576 43.0525 29.3741H43.0529V29.3726L43.0576 29.3588L43.0665 29.3333H43.0674V29.3308L43.0721 29.3181H43.0726V29.3171L43.0814 29.292H43.0824V29.2896L43.0871 29.2768H43.0875V29.2758C43.0903 29.2674 43.0936 29.2591 43.0964 29.2507H43.0974V29.2488C43.102 29.2355 43.1072 29.2227 43.1119 29.2095V29.209C43.1212 29.1834 43.131 29.1579 43.1408 29.1323H43.1413V29.1313C43.1446 29.123 43.1478 29.1146 43.1507 29.1068V29.1063L43.1544 29.0964H43.1553V29.0935L43.1642 29.0704H43.1652V29.0684L43.1745 29.0448H43.175V29.0439L43.1787 29.0345H43.1801V29.0316L43.1895 29.009H43.1899V29.0075C43.1946 28.9962 43.1993 28.9844 43.204 28.9731H43.2044V28.9716C43.2091 28.9603 43.2138 28.9485 43.2189 28.9372H43.2194V28.9362C43.232 28.9058 43.2451 28.8748 43.2582 28.8443V28.8439L43.2624 28.834H43.2629V28.8325L43.2667 28.8237H43.2676V28.8212C43.2741 28.8065 43.2802 28.7918 43.2867 28.7775V28.777L43.2909 28.7672H43.2914V28.7662L43.2956 28.7569H43.2966V28.7549L43.3003 28.7466H43.3012V28.7441C43.3125 28.719 43.3237 28.694 43.3354 28.6694V28.6689C43.3415 28.6552 43.348 28.6419 43.3546 28.6281H43.355V28.6271L43.3592 28.6178H43.3597V28.6168L43.3639 28.6075H43.3644V28.6065L43.3686 28.5972H43.3691V28.5962L43.3733 28.5868H43.3737V28.5859L43.3779 28.5765H43.3784V28.5755L43.3831 28.5662H43.3836V28.5652L43.3882 28.5559H43.3887V28.5554L43.3934 28.5456V28.5451L43.398 28.5352V28.5348L43.4032 28.5249C43.4177 28.4954 43.4322 28.4665 43.4467 28.4375H43.4472V28.4365L43.4518 28.4271V28.4267C43.4617 28.408 43.471 28.3893 43.4808 28.3706H43.4813V28.3696L43.486 28.3603C43.4921 28.3485 43.4986 28.3362 43.5047 28.3244H43.5056V28.323L43.5103 28.3141V28.3136C43.515 28.3053 43.5192 28.2969 43.5239 28.2886H43.5252V28.2861L43.5295 28.2782H43.5299V28.2773C43.536 28.2655 43.5426 28.2542 43.5486 28.2424H43.5496V28.2409L43.5542 28.2321C43.5589 28.2237 43.5636 28.2149 43.5683 28.2065H43.5687V28.2055C43.5846 28.1765 43.601 28.1475 43.6169 28.119H43.6174V28.118L43.6314 28.0935H43.6319V28.0925C43.6365 28.0841 43.6412 28.0758 43.6459 28.0679H43.6464V28.0669L43.6548 28.0522H43.6562V28.0497L43.6609 28.0419V28.0414L43.6697 28.0262H43.6707V28.0247L43.6847 28.0006H43.6852V28.0001L43.6941 27.9854H43.695V27.9834C43.6997 27.9755 43.7044 27.9672 43.7095 27.9593H43.71V27.9588C43.7212 27.9402 43.7324 27.9215 43.7441 27.9028V27.9023L43.7535 27.8871H43.7539V27.8866L43.7628 27.8719H43.7633V27.8709L43.7722 27.8566H43.7731V27.8551L43.782 27.8409H43.7829V27.8394L43.7918 27.8257H43.7928V27.8237L43.8016 27.8099H43.8026V27.8085L43.8115 27.7947H43.8124V27.7932L43.8213 27.7795H43.8222V27.778L43.8311 27.7642H43.832V27.7628L43.8414 27.7485H43.8418V27.7475L43.8512 27.7333H43.8517V27.7328L43.8615 27.718C43.8676 27.7087 43.8741 27.6989 43.8802 27.6895L43.8956 27.6664H43.8961V27.666L43.9097 27.6458H43.9111V27.6424L43.9204 27.6286H43.9209V27.6276L43.9344 27.608H43.9358V27.606L43.9452 27.5927H43.9457V27.5918L43.9485 27.5873H43.9503V27.5844L43.9592 27.5716H43.9602V27.5701L43.9625 27.5667H43.9648V27.5633L43.9695 27.5564V27.5559L43.9728 27.551H43.9742V27.549L43.9761 27.5461H43.9789V27.5421L43.9831 27.5357H43.9835V27.5348L43.9863 27.5303H43.9882V27.5279L43.9971 27.5151H43.998V27.5141L44.0008 27.5102H44.0027V27.5072L44.0116 27.4945H44.0125V27.493L44.0153 27.4891H44.0177V27.4861L44.0266 27.4738H44.0275V27.4723L44.0303 27.4689H44.0327V27.466L44.0415 27.4537H44.0425V27.4522L44.0565 27.433H44.0574V27.432L44.0719 27.4124H44.0724V27.4119L44.0869 27.3918C44.093 27.3834 44.0995 27.3746 44.1056 27.3662H44.1061V27.3652L44.1206 27.3456L44.1243 27.3406H44.1252V27.3392L44.1397 27.32H44.1402V27.3195L44.1439 27.3146H44.1453V27.3131L44.1598 27.2945H44.1603V27.294L44.1641 27.289H44.1655V27.2876L44.1683 27.2841H44.1706V27.2812L44.18 27.2689V27.2684L44.1837 27.2635H44.1851V27.262L44.1879 27.2586H44.1903V27.2556L44.2043 27.2379H44.2052V27.237L44.2085 27.233H44.2103V27.2306L44.2127 27.2276H44.2155V27.2242L44.2248 27.2124H44.2253V27.2119L44.2291 27.2075H44.2305V27.206L44.2333 27.2026H44.2356V27.1996L44.2496 27.1814H44.2501V27.1809L44.2538 27.1765H44.2552V27.1746L44.2581 27.1711H44.2604V27.1682L44.2749 27.1505H44.2754V27.15L44.2791 27.1456H44.28V27.1441C44.2866 27.1362 44.2931 27.1279 44.2997 27.12L44.3039 27.1151H44.3048V27.1141C44.3128 27.1043 44.3212 27.094 44.3291 27.0841C44.3404 27.0704 44.3516 27.0566 44.3633 27.0429H44.3638V27.0424L44.368 27.0375H44.3689V27.0365L44.3722 27.0325H44.3736V27.0306L44.3764 27.0271H44.3782V27.0247C44.3848 27.0168 44.3913 27.009 44.3979 27.0011L44.4021 26.9962H44.4025V26.9957L44.4063 26.9913H44.4072V26.9903L44.4105 26.9863H44.4119V26.9844L44.4147 26.9809H44.4166V26.9785L44.4189 26.976H44.4217V26.9731C44.4283 26.9657 44.4348 26.9578 44.4414 26.9505L44.4456 26.9456H44.446V26.9451L44.4498 26.9406H44.4507V26.9392L44.454 26.9352H44.4554V26.9333L44.4582 26.9298H44.4601V26.9274L44.4624 26.9244H44.4647V26.9215L44.4666 26.919H44.4694V26.9156C44.4774 26.9062 44.4853 26.8969 44.4937 26.8881H44.4942V26.8876L44.4984 26.8827H44.4989V26.8822L44.5026 26.8777H44.5036V26.8768L44.5073 26.8728H44.5087V26.8714L44.512 26.8679H44.5139V26.866C44.5284 26.8497 44.5424 26.8335 44.5569 26.8178V31.8635V34.3864V36.3722L42.6367 38.3933ZM45.647 25.8365L45.654 25.8315H45.6549V25.8306L45.668 25.8212H45.6694V25.8198L45.682 25.8109H45.6844V25.8094C45.6881 25.8065 45.6923 25.8035 45.6965 25.8006H45.6993V25.7986L45.704 25.7957H45.7045V25.7952L45.7115 25.7903H45.7143V25.7883L45.7185 25.7854H45.719V25.7849L45.733 25.775H45.7335V25.7745L45.7475 25.7647H45.7484V25.7642C45.7531 25.7608 45.7573 25.7578 45.762 25.7544H45.7629V25.7534L45.7765 25.7441H45.7774V25.7436C45.7821 25.7401 45.7868 25.7372 45.7915 25.7338H45.7924V25.7333L45.8064 25.7234H45.8069V25.7229L45.8214 25.7131H45.8219V25.7126C45.8396 25.7008 45.8569 25.6885 45.8747 25.6768H45.8756V25.6758L45.8897 25.6664H45.8901V25.6659C45.8976 25.661 45.9051 25.6556 45.9126 25.6507H45.9145V25.6497C45.9191 25.6468 45.9238 25.6438 45.9285 25.6404H45.9294V25.6399L45.9364 25.6355H45.9393V25.6335L45.9523 25.6252H45.9542V25.6242C45.9589 25.6212 45.9636 25.6183 45.9682 25.6148H45.9692V25.6143L45.9762 25.6099H45.979V25.608C45.9837 25.605 45.9879 25.6026 45.9925 25.5996H45.994V25.5986L46.0005 25.5942H46.0038V25.5922L46.0169 25.5839H46.0187V25.5829C46.0234 25.5799 46.0286 25.5765 46.0332 25.5736H46.0337L46.0417 25.5686H46.0435V25.5672C46.0482 25.5642 46.0534 25.5613 46.058 25.5583H46.0585L46.0664 25.5534H46.0683V25.5524C46.0926 25.5372 46.117 25.522 46.1417 25.5072L46.1502 25.5023H46.1516V25.5013C46.1595 25.4964 46.1675 25.4915 46.1754 25.4871H46.1759V25.4866L46.1838 25.4817H46.1857V25.4802L46.1927 25.4763H46.1955V25.4743L46.21 25.4659H46.2105L46.2189 25.461H46.2203V25.46L46.2278 25.4556H46.2301V25.4541L46.2367 25.4502H46.2399V25.4482C46.2446 25.4453 46.2493 25.4428 46.254 25.4399H46.2544V25.4394L46.2629 25.4345H46.2643V25.4335L46.2717 25.4291H46.2741V25.4276L46.2806 25.4237H46.2839V25.4217L46.3078 25.408H46.3087V25.4075L46.3166 25.4025H46.3185V25.4016L46.326 25.3976H46.3283V25.3962C46.3428 25.3878 46.3573 25.3799 46.3718 25.3721H46.3723V25.3716C46.4195 25.3455 46.4668 25.32 46.5145 25.2949L46.5243 25.2895L46.5341 25.2846C46.5374 25.2831 46.5406 25.2812 46.5439 25.2797C46.5673 25.2674 46.5907 25.2556 46.6141 25.2438H46.6173V25.2424L46.6244 25.2389H46.6272V25.2374L46.6346 25.234H46.637V25.233L46.6449 25.2291H46.6468V25.2281L46.6552 25.2237H46.6562V25.2232L46.6655 25.2188H46.666V25.2183L46.6758 25.2134C46.6931 25.2045 46.7109 25.1962 46.7286 25.1878H46.7296V25.1873L46.7394 25.1824C46.7464 25.179 46.7534 25.1755 46.7604 25.1721H46.7637V25.1706L46.7712 25.1672H46.7735V25.1662L46.7824 25.1623H46.7833V25.1618C46.7904 25.1583 46.7974 25.1554 46.8044 25.1519H46.8077V25.1505L46.8152 25.147H46.8175V25.146L46.8264 25.1421H46.8273V25.1416L46.8376 25.1367H46.8423V25.1347L46.8488 25.1318H46.8521V25.1303L46.86 25.1264H46.8619V25.1259L46.8717 25.1215L46.883 25.1166H46.8862V25.1151L46.8942 25.1116H46.8961V25.1107L46.9059 25.1062C46.9096 25.1048 46.9133 25.1028 46.9171 25.1013H46.9204V25.0998C46.9232 25.0984 46.926 25.0974 46.9288 25.0964H46.9302V25.0959C46.9414 25.091 46.9526 25.0861 46.9639 25.0812H46.9643C46.9882 25.0709 47.012 25.0605 47.0359 25.0507H47.0377V25.0497C47.0452 25.0468 47.0527 25.0433 47.0602 25.0404H47.0625V25.0379C47.07 25.035 47.0775 25.0315 47.0854 25.0286H47.0873V25.0281L47.0981 25.0237H47.1018V25.0222L47.1107 25.0188H47.1116V25.0183L47.1233 25.0134H47.1266V25.0119L47.136 25.008H47.1411V25.006L47.1486 25.003H47.1509V25.0021L47.1617 24.9981H47.1659V24.9966L47.1748 24.9932H47.1757V24.9927L47.1879 24.9878H47.1902V24.9868L47.201 24.9824H47.2047V24.9809L47.2136 24.9775H47.2145L47.2272 24.9726H47.2295V24.9716C47.2421 24.9667 47.2552 24.9618 47.2678 24.9568H47.2688V24.9564C47.2917 24.948 47.3141 24.9392 47.337 24.9308H47.3375L47.3511 24.9259H47.352V24.9254L47.3651 24.9205H47.3665V24.92C47.3707 24.9185 47.3749 24.917 47.3791 24.9156H47.3815V24.9146C47.3857 24.9131 47.3899 24.9116 47.3936 24.9102H47.396V24.9092L47.4086 24.9048H47.4109V24.9038L47.4231 24.8994H47.4254V24.8984L47.4376 24.8939H47.4399V24.893C47.4441 24.8915 47.4479 24.89 47.4521 24.8885H47.4544V24.8876L47.4671 24.8831H47.4694V24.8826C47.4736 24.8812 47.4783 24.8797 47.4825 24.8782H47.4844V24.8777L47.4979 24.8733H47.4989V24.8728L47.5129 24.8679H47.5133C47.518 24.8664 47.5232 24.8645 47.5278 24.863L47.5433 24.8581H47.5475V24.8566L47.5592 24.8527H47.562V24.8517L47.5718 24.8482V29.8296V31.5186V33.2075L45.6474 35.2296V34.3849V28.5849V25.8365H45.647ZM48.6567 24.5957H48.6586V24.5947C48.668 24.5932 48.6773 24.5917 48.6867 24.5908H48.6979V24.5893C48.7068 24.5878 48.7157 24.5868 48.7246 24.5858H48.7372V24.5839C48.7456 24.5829 48.754 24.5814 48.7624 24.5804H48.7765V24.579C48.7858 24.578 48.7947 24.5765 48.8041 24.5755H48.8157V24.574C48.8256 24.5726 48.8359 24.5716 48.8457 24.5701H48.8546V24.5691C48.8672 24.5677 48.8793 24.5662 48.892 24.5652H48.8938C48.9266 24.5618 48.9598 24.5583 48.9925 24.5549H49.0065V24.5534C49.021 24.5519 49.0356 24.5509 49.05 24.5495H49.0706V24.548C49.0847 24.547 49.0987 24.5455 49.1127 24.5446H49.1389V24.5426C49.1543 24.5416 49.1693 24.5401 49.1847 24.5392H49.2025V24.5382C49.2666 24.5342 49.3311 24.5313 49.3961 24.5288H49.4672V24.5269C49.5177 24.5259 49.5682 24.5249 49.6192 24.5249H50.5816V29.2045V30.0444L48.6567 32.067V31.5191V26.6443V24.5957V24.5957ZM51.667 24.5249H52.7781H55.8337L51.667 28.9033V26.5465V26.0183V24.5249Z" fill="white"/>
<path fill-rule="evenodd" clip-rule="evenodd" d="M23.2527 23.3691C23.9238 23.3691 24.4681 23.9406 24.4681 24.6463C24.4681 25.3515 23.9243 25.9235 23.2527 25.9235C22.5816 25.9235 22.0373 25.352 22.0373 24.6463C22.0373 23.9411 22.5812 23.3691 23.2527 23.3691Z" fill="white"/>
<path fill-rule="evenodd" clip-rule="evenodd" d="M24.4232 27.7317V31.7499V33.0767H22.0822V31.7499V27.7317V26.4049H24.4232V27.7317Z" fill="white"/>
<path d="M21.3728 33.0767V28.8649C21.3728 28.3883 21.3358 28.1563 21.2872 27.9376C21.189 27.4998 20.9809 27.062 20.6498 26.7784C20.0493 26.2374 19.2646 26.2246 19.0317 26.2246C18.3822 26.2246 17.7078 26.405 17.2421 26.8944C17.1195 27.0231 17.0947 27.0492 16.9357 27.2939V26.4054H14.5577V33.0772H17.0704V29.5224C17.0704 29.2389 17.0583 28.4276 17.9898 28.4276C18.566 28.4276 18.7497 28.7494 18.811 28.9814C18.8479 29.1362 18.848 29.2777 18.848 29.432V33.0772H21.3728V33.0767Z" fill="white"/>
<path d="M9.73257 35.6503L9.29999 35.4311C9.28409 35.4812 9.27519 35.5024 9.2635 35.5265C9.2317 35.5835 9.15034 35.7073 8.9759 35.7073C8.93756 35.7073 8.86508 35.7048 8.78558 35.6405C8.70842 35.5761 8.63825 35.4523 8.63825 35.2213C8.63825 35.1785 8.63124 34.9358 8.79024 34.812C8.82204 34.7884 8.88098 34.7525 8.97358 34.7525C9.17747 34.75 9.25695 34.924 9.28408 34.981C9.29109 34.9977 9.29998 35.0144 9.30652 35.0311L9.73022 34.8095C9.69608 34.7451 9.67363 34.7048 9.62593 34.6478C9.53755 34.5407 9.3201 34.3407 8.95533 34.3407C8.81504 34.3407 8.50918 34.3643 8.28939 34.6906C8.13553 34.9166 8.12384 35.15 8.12384 35.2523C8.12384 35.3712 8.14444 35.7068 8.41146 35.9427C8.56766 36.0832 8.74911 36.1353 8.953 36.1353C9.30888 36.1353 9.51278 35.9638 9.60771 35.8498C9.64652 35.8026 9.67598 35.7599 9.73257 35.6503Z" fill="white"/>
<path d="M11.3487 36.0832V35.7191H10.5191V35.3859H11.2309V35.0218H10.5214V34.7716H11.2804V34.4026H10.014V36.0832H11.3487Z" fill="white"/>
<path d="M13.1753 36.0832V34.4026H12.7016L12.7086 35.381L12.1671 34.4026H11.6302V36.0832H12.1016L12.097 35.1073L12.6291 36.0832H13.1753Z" fill="white"/>
<path d="M14.7462 34.8168V34.4026H13.4274V34.8168H13.8352V36.0832H14.3408V34.8168H14.7462Z" fill="white"/>
<path d="M16.5344 36.0832L16.1426 35.4046C16.2197 35.3736 16.2492 35.3594 16.2829 35.3353C16.4119 35.2449 16.4709 35.0994 16.4709 34.9402C16.4709 34.7928 16.4231 34.6876 16.396 34.638C16.2805 34.4355 16.0766 34.4164 16.0065 34.4095C15.9611 34.4046 15.9134 34.4021 15.868 34.4021H15.0024V36.0827H15.5098V35.4901H15.6571L15.9677 36.0827H16.5344V36.0832ZM15.9658 34.95C15.9658 34.9834 15.9569 35.0144 15.9546 35.0237C15.9181 35.1333 15.8143 35.1451 15.7212 35.1451H15.5103V34.7544H15.7165C15.7755 34.7544 15.8344 34.7569 15.8863 34.7879C15.8952 34.7928 15.9181 34.807 15.934 34.8306C15.9546 34.8645 15.9658 34.9097 15.9658 34.95Z" fill="white"/>
<path d="M18.4359 35.2287C18.4359 34.8763 18.2839 34.669 18.189 34.5717C17.9669 34.3432 17.6839 34.3407 17.5796 34.3407C17.2467 34.3407 17.0563 34.4812 16.9567 34.5835C16.7369 34.8144 16.7187 35.1309 16.7187 35.2429C16.7187 35.4881 16.7959 35.7333 16.9521 35.8975C17.1719 36.1333 17.4688 36.1378 17.5708 36.1378C17.6727 36.1378 17.965 36.1328 18.1913 35.895C18.42 35.6547 18.4359 35.3314 18.4359 35.2287ZM17.9262 35.2262C17.9262 35.4287 17.8743 35.5383 17.813 35.607C17.7494 35.6832 17.6746 35.7117 17.5796 35.7117C17.5025 35.7117 17.4529 35.6926 17.4211 35.6783C17.3781 35.6567 17.3439 35.6282 17.3145 35.5903C17.2238 35.469 17.2261 35.2739 17.2261 35.2429C17.2261 35.0454 17.285 34.9265 17.3416 34.8645C17.4253 34.7717 17.5408 34.7648 17.5796 34.7648C17.6091 34.7648 17.6839 34.7697 17.7564 34.8149C17.9332 34.9265 17.9262 35.181 17.9262 35.2262Z" fill="white"/>
<path d="M20.8513 35.4095V34.4026H20.3416V35.4527C20.3416 35.5028 20.3416 35.5407 20.3257 35.5834C20.2803 35.7097 20.1536 35.7166 20.1195 35.7166C20.0834 35.7166 19.9563 35.7092 19.9156 35.581C19.8973 35.5284 19.8997 35.4689 19.8997 35.4522V34.4021H19.3923V35.3996C19.3923 35.5761 19.4035 35.6449 19.4329 35.7284C19.5078 35.9358 19.671 36.0188 19.7388 36.0498C19.8973 36.1235 20.0559 36.1284 20.1148 36.1284C20.4 36.1284 20.6905 36.0119 20.8013 35.7073C20.8378 35.6075 20.8513 35.5166 20.8513 35.4095Z" fill="white"/>
<path d="M22.7462 36.0832V34.4026H22.273L22.2795 35.381L21.738 34.4026H21.2011V36.0832H21.6725L21.6678 35.1073L22.2005 36.0832H22.7462Z" fill="white"/>
<path d="M23.6082 36.0832V34.4026H23.1008V36.0832H23.6082Z" fill="white"/>
<path d="M25.4665 34.4026H24.9479L24.6645 35.4336L24.3788 34.4026H23.8625L24.397 36.0832H24.925L25.4665 34.4026Z" fill="white"/>
<path d="M27.0533 36.0832V35.7191H26.2242V35.3859H26.9354V35.0218H26.226V34.7716H26.9855V34.4026H25.7186V36.0832H27.0533Z" fill="white"/>
<path d="M28.8663 36.0832L28.4744 35.4046C28.5516 35.3736 28.5811 35.3594 28.6147 35.3353C28.7438 35.2449 28.8027 35.0994 28.8027 34.9402C28.8027 34.7928 28.755 34.6876 28.7279 34.638C28.6124 34.4355 28.4085 34.4164 28.3383 34.4095C28.293 34.4046 28.2453 34.4021 28.1999 34.4021H27.3343V36.0827H27.8417V35.4901H27.989L28.2995 36.0827H28.8663V36.0832ZM28.2976 34.95C28.2976 34.9834 28.2888 35.0144 28.2864 35.0237C28.25 35.1333 28.1461 35.1451 28.0531 35.1451H27.8422V34.7544H28.0484C28.1073 34.7544 28.1663 34.7569 28.2182 34.7879C28.227 34.7928 28.25 34.807 28.2659 34.8306C28.2864 34.8645 28.2976 34.9097 28.2976 34.95Z" fill="white"/>
<path d="M30.5779 35.5382C30.5779 35.2026 30.331 35.1097 30.2314 35.0763C30.0728 35.0217 29.9232 35.0001 29.8666 34.9908C29.8236 34.9834 29.7282 34.9647 29.6875 34.9382C29.6651 34.9215 29.6468 34.893 29.6468 34.862C29.6468 34.805 29.7011 34.7785 29.7104 34.7741C29.7581 34.7525 29.8194 34.7525 29.8306 34.7525C29.9508 34.7525 30.1116 34.7785 30.2042 34.8689C30.2178 34.8807 30.229 34.895 30.2496 34.9235L30.569 34.6448C30.526 34.5996 30.4965 34.5662 30.4465 34.5284C30.2178 34.352 29.9297 34.3475 29.8484 34.3475C29.7871 34.3475 29.3634 34.3426 29.2002 34.6571C29.1436 34.7642 29.1413 34.8665 29.1413 34.9117C29.1389 35.095 29.2297 35.207 29.2797 35.2522C29.3569 35.3235 29.4747 35.381 29.6945 35.4262C29.8371 35.4571 29.9391 35.4714 29.9957 35.493C30.0434 35.5097 30.0611 35.5308 30.0728 35.5549C30.0752 35.5623 30.0841 35.5765 30.0841 35.5952C30.0841 35.6788 29.9844 35.724 29.8418 35.724C29.731 35.724 29.5631 35.6881 29.4724 35.605C29.4499 35.5859 29.4294 35.5598 29.3952 35.5028L29.008 35.7623C29.0622 35.836 29.1053 35.8861 29.1778 35.9431C29.3681 36.093 29.5902 36.1338 29.8236 36.1338C29.8914 36.1338 30.1612 36.1387 30.3675 35.979C30.4371 35.924 30.5779 35.7883 30.5779 35.5382Z" fill="white"/>
<path d="M31.4034 36.0832V34.4026H30.8955V36.0832H31.4034Z" fill="white"/>
<path d="M32.9738 34.8168V34.4026H31.6555V34.8168H32.0632V36.0832H32.5683V34.8168H32.9738Z" fill="white"/>
<path d="M34.3252 34.0026H33.8337L33.6888 34.2881H33.9857L34.3252 34.0026ZM34.7802 36.0832L34.1821 34.4026H33.6064L32.9948 36.0832H33.5386L33.6088 35.8473H34.1662L34.2364 36.0832H34.7802ZM34.0624 35.4738H33.7182L33.8926 34.8812L34.0624 35.4738Z" fill="white"/>
<path d="M36.5755 36.0832L36.1836 35.4046C36.2608 35.3736 36.2903 35.3594 36.3239 35.3353C36.453 35.2449 36.5119 35.0994 36.5119 34.9402C36.5119 34.7928 36.4642 34.6876 36.4371 34.638C36.3216 34.4355 36.1177 34.4164 36.0476 34.4095C36.0022 34.4046 35.9545 34.4021 35.9091 34.4021H35.0435V36.0827H35.5509V35.4901H35.6982L36.0087 36.0827H36.5755V36.0832ZM36.0069 34.95C36.0069 34.9834 35.998 35.0144 35.9956 35.0237C35.9592 35.1333 35.8554 35.1451 35.7623 35.1451H35.5514V34.7544H35.7576C35.8165 34.7544 35.8755 34.7569 35.9274 34.7879C35.9363 34.7928 35.9592 34.807 35.9751 34.8306C35.9956 34.8645 36.0069 34.9097 36.0069 34.95Z" fill="white"/>
<path d="M37.3079 36.0832V34.4026H36.8005V36.0832H37.3079Z" fill="white"/>
<path d="M39.3388 35.2287C39.3388 34.8763 39.1868 34.669 39.0919 34.5717C38.8698 34.3432 38.5868 34.3407 38.4825 34.3407C38.1496 34.3407 37.9592 34.4812 37.8596 34.5835C37.6398 34.8144 37.6216 35.1309 37.6216 35.2429C37.6216 35.4881 37.6988 35.7333 37.8549 35.8975C38.0747 36.1333 38.3717 36.1378 38.4736 36.1378C38.5756 36.1378 38.8679 36.1328 39.0942 35.895C39.3229 35.6547 39.3388 35.3314 39.3388 35.2287ZM38.8291 35.2262C38.8291 35.4287 38.7772 35.5383 38.7159 35.607C38.6523 35.6832 38.5775 35.7117 38.4825 35.7117C38.4054 35.7117 38.3558 35.6926 38.324 35.6783C38.281 35.6567 38.2468 35.6282 38.2174 35.5903C38.1267 35.469 38.129 35.2739 38.129 35.2429C38.129 35.0454 38.1879 34.9265 38.2445 34.8645C38.3282 34.7717 38.4437 34.7648 38.4825 34.7648C38.512 34.7648 38.5868 34.7697 38.6593 34.8149C38.8356 34.9265 38.8291 35.181 38.8291 35.2262Z" fill="white"/>
<path d="M15.1377 38.5634L14.547 38.2646C14.5255 38.3329 14.5129 38.3619 14.4975 38.3948C14.454 38.4729 14.3427 38.642 14.1046 38.642C14.0523 38.642 13.9531 38.6385 13.8446 38.5511C13.7394 38.4631 13.6435 38.2946 13.6435 37.9791C13.6435 37.9206 13.6342 37.5889 13.8507 37.4199C13.8942 37.3874 13.9746 37.3388 14.1014 37.3388C14.3796 37.3353 14.4881 37.5727 14.5251 37.6508C14.5344 37.6734 14.5466 37.6965 14.5559 37.7191L15.1344 37.4169C15.0881 37.3289 15.0572 37.2739 14.9922 37.1958C14.8716 37.0493 14.5746 36.7766 14.0766 36.7766C13.8848 36.7766 13.4672 36.809 13.1675 37.2543C12.957 37.5629 12.9416 37.8813 12.9416 38.0213C12.9416 38.184 12.9697 38.642 13.3344 38.9639C13.5477 39.1555 13.7951 39.2272 14.0738 39.2272C14.5592 39.2272 14.8379 38.9933 14.9675 38.8371C15.0203 38.7712 15.0605 38.7127 15.1377 38.5634Z" fill="white"/>
<path d="M16.2782 39.155V36.8601H15.5856V39.155H16.2782Z" fill="white"/>
<path d="M18.9284 37.9977C18.9284 37.5328 18.7769 37.2763 18.6347 37.1299C18.4149 36.9088 18.1493 36.8798 17.8584 36.8665C17.7625 36.8631 17.6634 36.8601 17.5675 36.8601H16.8254V39.1545H17.7345C17.9141 39.1545 18.1119 39.1579 18.2882 39.1024C18.7488 38.9628 18.8606 38.5043 18.8942 38.355C18.9069 38.2935 18.9284 38.1667 18.9284 37.9977ZM18.2325 38.0075C18.2325 38.0434 18.2386 38.4562 17.9819 38.5859C17.9136 38.6218 17.8551 38.6282 17.7808 38.6282H17.518V37.3967H17.778C17.9173 37.3967 17.9697 37.4193 18.0347 37.4616C18.2386 37.6011 18.2325 37.9879 18.2325 38.0075Z" fill="white"/>
<path d="M21.5692 39.155L20.7526 36.8606H19.967L19.1318 39.155H19.8739L19.9698 38.8331H20.7307L20.8265 39.155H21.5692ZM20.5885 38.323H20.1185L20.3565 37.5137L20.5885 38.323Z" fill="white"/>
<path d="M24.0954 37.9977C24.0954 37.5328 23.9439 37.2763 23.8017 37.1299C23.5819 36.9088 23.3163 36.8798 23.0254 36.8665C22.9296 36.8631 22.8304 36.8601 22.7345 36.8601H21.9924V39.1545H22.9015C23.0811 39.1545 23.2789 39.1579 23.4552 39.1024C23.9158 38.9628 24.0276 38.5043 24.0613 38.355C24.0739 38.2935 24.0954 38.1667 24.0954 37.9977ZM23.3995 38.0075C23.3995 38.0434 23.4056 38.4562 23.1489 38.5859C23.0811 38.6218 23.0221 38.6282 22.9478 38.6282H22.685V37.3967H22.945C23.0843 37.3967 23.1367 37.4193 23.2017 37.4616C23.4056 37.6011 23.3995 37.9879 23.3995 38.0075Z" fill="white"/>
<path d="M26.4051 39.155V38.6577H25.273V38.2026H26.2443V37.7053H25.2762V37.3643H26.3121V36.8601H24.5832V39.155H26.4051Z" fill="white"/>
<path d="M29.7876 36.8601H29.0791L28.6923 38.2675L28.3028 36.8601H27.5976L28.3276 39.155H29.0482L29.7876 36.8601Z" fill="white"/>
<path d="M32.017 39.155V38.6577H30.8848V38.2026H31.8561V37.7053H30.8881V37.3643H31.9239V36.8601H30.195V39.155H32.017Z" fill="white"/>
<path d="M34.5553 39.155L34.0203 38.2287C34.1255 38.1864 34.1657 38.1668 34.212 38.1343C34.3883 38.011 34.4687 37.8124 34.4687 37.5948C34.4687 37.3933 34.4038 37.2503 34.3668 37.182C34.2092 36.9058 33.9305 36.8798 33.8346 36.8699C33.7729 36.8635 33.7079 36.8601 33.6462 36.8601H32.4644V39.1545H33.157V38.3451H33.3581L33.7818 39.1545H34.5553V39.155ZM33.779 37.608C33.779 37.6537 33.7663 37.696 33.7635 37.7088C33.714 37.8581 33.5718 37.8744 33.4451 37.8744H33.1575V37.3412H33.439C33.5194 37.3412 33.5999 37.3446 33.6709 37.3869C33.6831 37.3933 33.7144 37.4129 33.7359 37.4454C33.7635 37.4906 33.779 37.5525 33.779 37.608Z" fill="white"/>
<path d="M37.0291 37.9977C37.0291 37.5328 36.8776 37.2763 36.7355 37.1299C36.5157 36.9088 36.2501 36.8798 35.9592 36.8665C35.8633 36.8631 35.7642 36.8601 35.6683 36.8601H34.9261V39.1545H35.8353C36.0148 39.1545 36.2126 39.1579 36.3889 39.1024C36.8496 38.9628 36.9609 38.5043 36.995 38.355C37.0072 38.2935 37.0291 38.1667 37.0291 37.9977ZM36.3333 38.0075C36.3333 38.0434 36.3394 38.4562 36.0826 38.5859C36.0144 38.6218 35.9559 38.6282 35.8815 38.6282H35.6187V37.3967H35.8787C36.0181 37.3967 36.0705 37.4193 36.1355 37.4616C36.3394 37.6011 36.3333 37.9879 36.3333 38.0075Z" fill="white"/>
<path d="M39.3389 39.155V38.6577H38.2067V38.2026H39.178V37.7053H38.21V37.3643H39.2458V36.8601H37.5169V39.155H39.3389Z" fill="white"/>
</g>
</svg>
